<svg width="40" height="40" viewBox="0 0 40 40" fill="none" xmlns="http://www.w3.org/2000/svg">
<path d="M31.6 1.25H8.4C6.50472 1.2533 4.68801 2.00767 3.34784 3.34784C2.00767 4.68801 1.2533 6.50472 1.25 8.4V31.6C1.2533 33.4953 2.00767 35.312 3.34784 36.6522C4.68801 37.9923 6.50472 38.7467 8.4 38.75H31.6C33.4953 38.7467 35.312 37.9923 36.6522 36.6522C37.9923 35.312 38.7467 33.4953 38.75 31.6V8.4C38.7467 6.50472 37.9923 4.68801 36.6522 3.34784C35.312 2.00767 33.4953 1.2533 31.6 1.25ZM36.25 31.6C36.2467 32.8322 35.7557 34.0131 34.8844 34.8844C34.0131 35.7557 32.8322 36.2467 31.6 36.25H8.4C7.16776 36.2467 5.98693 35.7557 5.1156 34.8844C4.24427 34.0131 3.7533 32.8322 3.75 31.6V8.4C3.7533 7.16776 4.24427 5.98693 5.1156 5.1156C5.98693 4.24427 7.16776 3.7533 8.4 3.75H31.6C32.8322 3.7533 34.0131 4.24427 34.8844 5.1156C35.7557 5.98693 36.2467 7.16776 36.25 8.4V31.6Z" fill="#AF3B27"/>
<path d="M31.25 22.3C30.9185 22.3 30.6005 22.4317 30.3661 22.6661C30.1317 22.9005 30 23.2185 30 23.55V28.2375L11.7625 10H16.45C16.7815 10 17.0995 9.8683 17.3339 9.63388C17.5683 9.39946 17.7 9.08152 17.7 8.75C17.7 8.41848 17.5683 8.10054 17.3339 7.86612C17.0995 7.6317 16.7815 7.5 16.45 7.5H8.3625C8.13375 7.5 7.91437 7.59087 7.75262 7.75262C7.59087 7.91437 7.5 8.13375 7.5 8.3625V16.45C7.5 16.7815 7.6317 17.0995 7.86612 17.3339C8.10054 17.5683 8.41848 17.7 8.75 17.7C9.08152 17.7 9.39946 17.5683 9.63388 17.3339C9.8683 17.0995 10 16.7815 10 16.45V11.7625L28.2375 30H23.55C23.2185 30 22.9005 30.1317 22.6661 30.3661C22.4317 30.6005 22.3 30.9185 22.3 31.25C22.3 31.5815 22.4317 31.8995 22.6661 32.1339C22.9005 32.3683 23.2185 32.5 23.55 32.5H31.6375C31.8662 32.5 32.0856 32.4091 32.2474 32.2474C32.4091 32.0856 32.5 31.8662 32.5 31.6375V23.55C32.5 23.2185 32.3683 22.9005 32.1339 22.6661C31.8995 22.4317 31.5815 22.3 31.25 22.3Z" fill="#AF3B27"/>
</svg>
