<svg width="23" height="23" viewBox="0 0 23 23" fill="none" xmlns="http://www.w3.org/2000/svg">
<g clip-path="url(#clip0_583_1343)">
<path d="M5.52 0C4.09688 0 3.05648 0.183281 2.34313 0.805C1.62977 1.42672 1.38 2.40602 1.38 3.68V5.52H0.92C0.416875 5.52 0 5.93688 0 6.44V10.12C0 10.6231 0.416875 11.04 0.92 11.04H1.38V18.86C1.38 19.4224 1.55609 19.895 1.84 20.2544V21.62C1.84 22.3765 2.46352 23 3.22 23H5.06C5.81648 23 6.44 22.3765 6.44 21.62V21.16H16.56V21.62C16.56 22.3765 17.1835 23 17.94 23H19.78C20.5365 23 21.16 22.3765 21.16 21.62V20.2544C21.4439 19.895 21.62 19.4224 21.62 18.86V11.04H22.08C22.5831 11.04 23 10.6231 23 10.12V6.44C23 5.93688 22.5831 5.52 22.08 5.52H21.62V4.14C21.62 2.92352 21.523 1.92805 21.0306 1.16438C20.5383 0.400703 19.6362 0 18.4 0H5.52ZM5.52 0.92H18.4C19.4638 0.92 19.9417 1.16977 20.2544 1.65313C20.567 2.13648 20.7 2.98281 20.7 4.14V18.86C20.7 19.4979 20.5167 19.7495 20.1394 19.9525C19.762 20.1555 19.1295 20.24 18.4 20.24H4.6C3.87047 20.24 3.23797 20.1555 2.86063 19.9525C2.48328 19.7495 2.3 19.4979 2.3 18.86V3.68C2.3 2.52281 2.51023 1.89031 2.94688 1.50937C3.38352 1.12844 4.18313 0.92 5.52 0.92ZM6.9 1.38C6.39687 1.38 5.98 1.79688 5.98 2.3V3.22C5.98 3.72312 6.39687 4.14 6.9 4.14H16.56C17.0631 4.14 17.48 3.72312 17.48 3.22V2.3C17.48 1.79688 17.0631 1.38 16.56 1.38H6.9ZM6.9 2.3H16.56V3.22H6.9V2.3ZM5.06 4.6C4.52273 4.6 4.03219 4.73656 3.69438 5.07438C3.35656 5.41219 3.22 5.90273 3.22 6.44V11.96C3.22 12.4973 3.35656 12.9878 3.69438 13.3256C4.03219 13.6634 4.52273 13.8 5.06 13.8L17.94 13.7713C18.3155 13.7713 18.7198 13.6275 19.09 13.34C19.4602 13.0525 19.78 12.5691 19.78 11.96V6.44C19.78 5.90273 19.6434 5.41219 19.3056 5.07438C18.9678 4.73656 18.4773 4.6 17.94 4.6H5.06ZM5.06 5.52H17.94C18.3227 5.52 18.5222 5.61344 18.6444 5.73563C18.7666 5.85781 18.86 6.05727 18.86 6.44V11.96C18.86 12.2709 18.7288 12.4523 18.5294 12.6069C18.3299 12.7614 18.046 12.8513 17.94 12.8513L5.06 12.88C4.67727 12.88 4.47781 12.7866 4.35563 12.6644C4.23344 12.5422 4.14 12.3427 4.14 11.96V6.44C4.14 6.05727 4.23344 5.85781 4.35563 5.73563C4.47781 5.61344 4.67727 5.52 5.06 5.52ZM0.92 6.44H1.38V10.12H0.92V6.44ZM21.62 6.44H22.08V10.12H21.62V6.44ZM5.29 15.18C4.15258 15.18 3.22 16.1126 3.22 17.25C3.22 18.3874 4.15258 19.32 5.29 19.32C6.42742 19.32 7.36 18.3874 7.36 17.25C7.36 16.1126 6.42742 15.18 5.29 15.18ZM17.71 15.18C16.5726 15.18 15.64 16.1126 15.64 17.25C15.64 18.3874 16.5726 19.32 17.71 19.32C18.8474 19.32 19.78 18.3874 19.78 17.25C19.78 16.1126 18.8474 15.18 17.71 15.18ZM5.29 16.1C5.92969 16.1 6.44 16.6103 6.44 17.25C6.44 17.8897 5.92969 18.4 5.29 18.4C4.65031 18.4 4.14 17.8897 4.14 17.25C4.14 16.6103 4.65031 16.1 5.29 16.1ZM17.71 16.1C18.3497 16.1 18.86 16.6103 18.86 17.25C18.86 17.8897 18.3497 18.4 17.71 18.4C17.0703 18.4 16.56 17.8897 16.56 17.25C16.56 16.6103 17.0703 16.1 17.71 16.1ZM2.76 20.9013C3.31164 21.1097 3.94055 21.16 4.6 21.16H5.52V21.62C5.52 21.8787 5.31875 22.08 5.06 22.08H3.22C2.96125 22.08 2.76 21.8787 2.76 21.62V20.9013ZM20.24 20.9013V21.62C20.24 21.8787 20.0387 22.08 19.78 22.08H17.94C17.6812 22.08 17.48 21.8787 17.48 21.62V21.16H18.4C19.0595 21.16 19.6884 21.1097 20.24 20.9013Z" fill="#AF3B27"/>
</g>
<defs>
<clipPath id="clip0_583_1343">
<rect width="23" height="23" fill="white"/>
</clipPath>
</defs>
</svg>
