<svg width="40" height="40" viewBox="0 0 40 40" fill="none" xmlns="http://www.w3.org/2000/svg">
<g clip-path="url(#clip0_860_3922)">
<path d="M27.4219 5.85938C27.4219 5.21219 26.8972 4.6875 26.25 4.6875H12.9688C12.3216 4.6875 11.7969 5.21219 11.7969 5.85938C11.7969 6.50656 12.3216 7.03125 12.9688 7.03125H26.25C26.8972 7.03125 27.4219 6.50656 27.4219 5.85938Z" fill="#AF3B27"/>
<path d="M23.9062 9.375H12.9688C12.3216 9.375 11.7969 9.89969 11.7969 10.5469C11.7969 11.1941 12.3216 11.7188 12.9688 11.7188H23.9062C24.5534 11.7188 25.0781 11.1941 25.0781 10.5469C25.0781 9.89969 24.5534 9.375 23.9062 9.375Z" fill="#AF3B27"/>
<path d="M23.9062 14.0625H12.9688C12.3216 14.0625 11.7969 14.5872 11.7969 15.2344C11.7969 15.8816 12.3216 16.4062 12.9688 16.4062H23.9062C24.5534 16.4062 25.0781 15.8816 25.0781 15.2344C25.0781 14.5872 24.5534 14.0625 23.9062 14.0625Z" fill="#AF3B27"/>
<path d="M38.8281 19.6875H35.2344V17.4873C36.1963 16.5627 36.7969 15.2646 36.7969 13.8281C36.7969 11.4314 35.1273 9.41859 32.8906 8.88797V1.17188C32.8906 0.524687 32.3659 0 31.7188 0H8.28125C7.63406 0 7.10938 0.524687 7.10938 1.17188V19.6875H1.17188C0.524687 19.6875 0 20.2122 0 20.8594V32.5781C0 33.2253 0.524687 33.75 1.17188 33.75H9.35836L13.4705 37.8621C14.8491 39.2407 16.6822 40 18.6318 40C20.283 40 21.9024 39.432 23.1917 38.4005L29.0048 33.75H38.8281C39.4753 33.75 40 33.2253 40 32.5781V20.8594C40 20.2122 39.4753 19.6875 38.8281 19.6875ZM34.4531 13.8281C34.4531 15.3359 33.2265 16.5625 31.7188 16.5625C30.211 16.5625 28.9844 15.3359 28.9844 13.8281C28.9844 12.3204 30.211 11.0938 31.7188 11.0938C33.2265 11.0938 34.4531 12.3204 34.4531 13.8281ZM32.8906 18.7683V21.0135L32.3688 20.6656C31.9752 20.4032 31.4623 20.4032 31.0687 20.6656L30.5469 21.0134V18.7682C30.9234 18.8575 31.3154 18.9062 31.7188 18.9062C32.1221 18.9062 32.5141 18.8576 32.8906 18.7683ZM9.45312 2.34375H30.5469V8.88797C28.3102 9.41859 26.6406 11.4314 26.6406 13.8281C26.6406 15.2646 27.2412 16.5627 28.2031 17.4873V19.6875H9.45312V2.34375ZM21.7276 36.5703C20.8523 37.2705 19.7528 37.6562 18.6318 37.6562C17.3081 37.6562 16.0637 37.1408 15.1277 36.2048L10.6723 31.7495C10.4526 31.5298 10.1545 31.4062 9.84375 31.4062H2.34375V22.0312H16.5845L14.268 23.833C12.6418 25.0978 12.3643 27.4484 13.6513 29.0572C14.8979 30.6154 17.1566 30.9021 18.753 29.7048L22.1843 27.1313L26.8979 32.4341L21.7276 36.5703ZM37.6562 31.4062H29.12L23.2196 24.7683C22.8147 24.3127 22.1282 24.2437 21.6406 24.6093L17.3466 27.8298C16.763 28.2675 15.9372 28.1627 15.4815 27.593C15.0109 27.0048 15.1124 26.1454 15.707 25.683L20.402 22.0312H28.2031V23.2031C28.2031 24.1391 29.2463 24.6973 30.0251 24.1782L31.7188 23.0491L33.4124 24.1782C34.1912 24.6973 35.2344 24.1391 35.2344 23.2031V22.0312H37.6562V31.4062Z" fill="#AF3B27"/>
</g>
<defs>
<clipPath id="clip0_860_3922">
<rect width="40" height="40" fill="white"/>
</clipPath>
</defs>
</svg>
