<svg width="40" height="40" viewBox="0 0 40 40" fill="none" xmlns="http://www.w3.org/2000/svg">
<path d="M19.257 34.2864C19.4818 34.4376 19.7413 34.5131 20.0007 34.5131C20.2602 34.5131 20.5197 34.4376 20.7445 34.2864C21.2693 33.9336 33.5959 25.5112 33.5959 13.6165C33.5959 6.10853 27.497 0 20.0007 0C12.5042 0 6.40527 6.10853 6.40527 13.6165C6.40527 25.5112 18.7322 33.9336 19.257 34.2864ZM20.0007 2.66667C26.0269 2.66667 30.9293 7.57867 30.9293 13.6165C30.9293 22.5141 22.573 29.5685 20.0007 31.5291C17.4271 29.5677 9.07194 22.5133 9.07194 13.6165C9.07194 7.57867 13.9743 2.66667 20.0007 2.66667Z" fill="#AF3B27"/>
<path d="M25.3038 13.2875C25.3038 10.3606 22.9257 7.97949 20.0025 7.97949C17.0777 7.97949 14.6982 10.3608 14.6982 13.2875C14.6982 16.216 17.0777 18.5987 20.0025 18.5987C22.9257 18.5984 25.3038 16.216 25.3038 13.2875ZM17.3649 13.2875C17.3649 11.831 18.5481 10.6462 20.0025 10.6462C21.4553 10.6462 22.6372 11.831 22.6372 13.2875C22.6372 14.7456 21.4553 15.932 20.0025 15.932C18.5481 15.9318 17.3649 14.7454 17.3649 13.2875Z" fill="#AF3B27"/>
<path d="M20.0002 39.9997C27.6709 39.9997 35.4362 37.7135 35.4362 33.3439C35.4362 31.961 34.6173 29.9882 30.7159 28.4418C30.0306 28.1709 29.2562 28.5053 28.985 29.1901C28.7135 29.8746 29.0487 30.6495 29.7333 30.921C31.9743 31.8093 32.7698 32.7815 32.7698 33.3439C32.7695 34.9319 27.6765 37.333 20.0002 37.333C12.3239 37.333 7.23085 34.9319 7.23085 33.3439C7.23085 32.7813 8.02605 31.809 10.2674 30.921C10.9517 30.6495 11.2869 29.8746 11.0157 29.1901C10.7439 28.5053 9.96872 28.1706 9.28472 28.4418C5.38339 29.9882 4.56445 31.9613 4.56445 33.3439C4.56419 37.7135 12.3295 39.9997 20.0002 39.9997Z" fill="#AF3B27"/>
</svg>
