<svg width="25" height="24" viewBox="0 0 25 24" fill="none" xmlns="http://www.w3.org/2000/svg">
<path d="M20.3842 19.1256C20.8833 18.9684 21.25 18.532 21.25 18V4.8C21.25 2.1532 19.0071 0 16.25 0H8.75C5.99292 0 3.75 2.1532 3.75 4.8V18C3.75 18.532 4.11665 18.9684 4.61582 19.1256L0 24H1.68877L3.96167 21.6H21.0388L23.3117 24H25L20.3842 19.1256ZM5 6H11.875V9.6H5V6ZM5 13.2H6.875C7.21958 13.2 7.5 13.4692 7.5 13.8C7.5 14.1308 7.21958 14.4 6.875 14.4H5V13.2ZM5.0979 20.4L6.23413 19.2H18.7658L19.9021 20.4H5.0979ZM20 14.4H18.125C17.7804 14.4 17.5 14.1308 17.5 13.8C17.5 13.4692 17.7804 13.2 18.125 13.2H20V14.4ZM20 12H18.125C17.0896 12 16.25 12.806 16.25 13.8C16.25 14.794 17.0896 15.6 18.125 15.6H20V18H5V15.6H6.875C7.9104 15.6 8.75 14.794 8.75 13.8C8.75 12.806 7.9104 12 6.875 12H5V10.8H20V12ZM20 9.6H13.125V6H20V9.6ZM5 4.8C5 2.81161 6.67876 1.2 8.75 1.2H16.25C18.3212 1.2 20 2.81161 20 4.8H5Z" fill="#AF3B27"/>
</svg>
