<svg width="504" height="492" viewBox="0 0 504 492" fill="none" xmlns="http://www.w3.org/2000/svg">
<path d="M261.539 154.008C256.7 154.963 253.187 159.237 253.187 164.169V182.204C253.187 187.138 256.701 191.412 261.54 192.365L267.596 193.559L271.738 203.559L268.3 208.684C265.552 212.783 266.09 218.288 269.578 221.776L282.33 234.527C285.817 238.015 291.322 238.553 295.422 235.807L300.548 232.369L310.548 236.511L311.742 242.566C312.695 247.407 316.969 250.92 321.903 250.92H339.938C344.871 250.92 349.144 247.406 350.099 242.566L351.293 236.509L361.293 232.368L366.421 235.806C370.519 238.552 376.024 238.015 379.511 234.526L392.262 221.776C395.753 218.288 396.291 212.782 393.543 208.683L390.105 203.557L394.247 193.557L400.302 192.363C405.143 191.409 408.656 187.136 408.656 182.202V164.167C408.656 159.234 405.143 154.96 400.303 154.005L394.247 152.811L390.105 142.811L393.542 137.686C396.291 133.589 395.753 128.082 392.264 124.594L379.511 111.841C376.023 108.353 370.517 107.814 366.42 110.563L361.295 114.001L351.295 109.859L350.101 103.802C349.146 98.9621 344.872 95.4491 339.94 95.4491H321.905C316.972 95.4491 312.699 98.9621 311.744 103.803L310.55 109.859L300.55 114.001L295.423 110.563C291.326 107.815 285.82 108.354 282.333 111.842L269.579 124.596C266.092 128.085 265.555 133.591 268.302 137.686L271.74 142.812L267.598 152.812L261.541 154.006L261.539 154.008ZM273.982 165.824C276.28 165.371 278.199 163.799 279.095 161.635L286.105 144.707C287.001 142.543 286.756 140.075 285.452 138.13L281.595 132.378L290.113 123.86L295.865 127.717C297.81 129.022 300.277 129.266 302.442 128.371L319.369 121.361C321.533 120.465 323.105 118.546 323.558 116.248L324.898 109.453H336.943L338.283 116.248C338.736 118.546 340.308 120.465 342.472 121.361L359.4 128.372C361.563 129.268 364.031 129.022 365.977 127.718L371.729 123.861L380.246 132.378L376.389 138.13C375.084 140.075 374.839 142.543 375.735 144.707L382.745 161.635C383.641 163.799 385.56 165.371 387.858 165.824L394.654 167.164V179.209L387.858 180.549C385.56 181.002 383.641 182.574 382.745 184.738L375.735 201.666C374.839 203.83 375.084 206.298 376.389 208.243L380.246 213.994L371.728 222.512L365.976 218.656C364.031 217.351 361.563 217.106 359.399 218.003L342.472 225.013C340.308 225.909 338.736 227.827 338.283 230.125L336.943 236.922H324.899L323.559 230.125C323.106 227.827 321.534 225.908 319.37 225.013L302.443 218.003C300.278 217.106 297.811 217.352 295.866 218.656L290.115 222.512L281.597 213.995L285.454 208.243C286.759 206.298 287.004 203.829 286.108 201.666L279.098 184.738C278.202 182.574 276.283 181.002 273.985 180.549L267.189 179.209V167.164L273.984 165.824H273.982ZM330.921 216.46C342.481 216.46 353.347 211.959 361.521 203.786C378.394 186.913 378.394 159.459 361.521 142.587C353.348 134.414 342.48 129.912 330.921 129.912C319.362 129.912 308.495 134.414 300.321 142.587C292.149 150.76 287.646 161.628 287.646 173.187C287.646 184.746 292.147 195.613 300.321 203.786C308.495 211.959 319.362 216.46 330.921 216.46ZM310.221 152.486C315.75 146.956 323.102 143.911 330.922 143.911C338.742 143.911 346.093 146.956 351.622 152.485C357.151 158.014 360.196 165.366 360.196 173.185C360.196 181.004 357.151 188.356 351.622 193.885C346.093 199.414 338.742 202.459 330.922 202.459C323.102 202.459 315.751 199.414 310.222 193.885C304.693 188.356 301.648 181.005 301.648 173.185C301.648 165.365 304.693 158.014 310.222 152.485L310.221 152.486ZM254.672 337.992C259.514 337.04 263.028 332.766 263.028 327.831V309.796C263.028 304.86 259.514 300.587 254.675 299.636L248.619 298.441L244.477 288.441L247.915 283.315C250.663 279.218 250.125 273.712 246.636 270.224L233.882 257.47C230.392 253.982 224.887 253.444 220.792 256.193L215.667 259.631L205.667 255.489L204.473 249.432C203.518 244.592 199.244 241.079 194.312 241.079H176.277C171.343 241.079 167.069 244.593 166.116 249.432L164.922 255.489L154.922 259.631L149.797 256.194C145.701 253.444 140.195 253.981 136.704 257.471L123.951 270.224C120.463 273.712 119.925 279.218 122.673 283.315L126.111 288.441L121.969 298.442L115.913 299.636C111.073 300.59 107.56 304.864 107.56 309.796V327.831C107.56 332.767 111.074 337.04 115.913 337.991L121.969 339.185L126.111 349.186L122.675 354.31C119.926 358.407 120.463 363.913 123.951 367.404L136.704 380.156C140.193 383.645 145.699 384.182 149.795 381.434L154.921 377.996L164.921 382.138L166.115 388.193C167.068 393.034 171.342 396.547 176.276 396.547H194.311C199.245 396.547 203.519 393.033 204.472 388.194L205.666 382.137L215.666 377.995L220.791 381.432C224.887 384.181 230.395 383.645 233.884 380.155L246.638 367.401C250.126 363.912 250.663 358.406 247.915 354.311L244.477 349.185L248.619 339.185L254.672 337.991V337.992ZM242.232 326.177C239.934 326.63 238.015 328.202 237.119 330.365L230.109 347.293C229.213 349.457 229.458 351.926 230.763 353.87L234.62 359.622L226.103 368.14L220.35 364.283C218.406 362.978 215.938 362.734 213.773 363.629L196.845 370.639C194.681 371.535 193.109 373.454 192.656 375.752L191.316 382.549H179.271L177.931 375.753C177.478 373.455 175.906 371.536 173.742 370.641L156.814 363.63C154.65 362.733 152.183 362.978 150.237 364.283L144.485 368.14L135.968 359.622L139.825 353.87C141.129 351.925 141.374 349.457 140.478 347.293L133.468 330.365C132.572 328.202 130.653 326.63 128.355 326.177L121.559 324.836V312.791L128.355 311.45C130.653 310.997 132.572 309.425 133.468 307.262L140.478 290.334C141.374 288.17 141.129 285.701 139.824 283.757L135.967 278.005L144.484 269.487L150.236 273.344C152.181 274.649 154.65 274.895 156.813 273.997L173.741 266.986C175.905 266.09 177.477 264.172 177.93 261.874L179.27 255.078H191.315L192.655 261.874C193.108 264.172 194.68 266.091 196.844 266.986L213.772 273.997C215.935 274.893 218.404 274.648 220.349 273.344L226.101 269.487L234.619 278.005L230.762 283.757C229.457 285.701 229.212 288.17 230.108 290.334L237.119 307.262C238.015 309.425 239.934 310.997 242.232 311.45L249.028 312.791V324.836L242.232 326.177ZM185.294 275.539C173.735 275.539 162.868 280.041 154.695 288.215C146.522 296.388 142.02 307.256 142.02 318.815C142.02 330.374 146.521 341.241 154.695 349.414C163.132 357.852 174.211 362.069 185.294 362.068C196.374 362.068 207.458 357.849 215.894 349.415C224.067 341.241 228.569 330.374 228.569 318.815C228.569 307.255 224.068 296.388 215.894 288.215C207.721 280.041 196.853 275.539 185.294 275.539ZM205.994 339.514C194.58 350.929 176.008 350.929 164.594 339.514C159.064 333.986 156.019 326.634 156.019 318.815C156.019 310.996 159.064 303.643 164.594 298.115C170.123 292.585 177.474 289.54 185.294 289.54C193.114 289.54 200.465 292.585 205.994 298.114C211.523 303.643 214.568 310.995 214.568 318.814C214.568 326.633 211.523 333.986 205.993 339.514H205.994ZM307.509 312.814C309.826 315.909 309.196 320.295 306.101 322.613C303.006 324.928 298.619 324.298 296.302 321.205L295.286 319.849C295.084 348.56 283.751 375.884 263.057 396.578C242.363 417.272 214.669 428.789 185.294 428.789C155.919 428.789 128.302 417.35 107.531 396.578C86.7597 375.807 75.3197 348.19 75.3197 318.815C75.3197 289.44 86.7587 261.822 107.531 241.051C128.302 220.28 155.919 208.84 185.294 208.84C214.669 208.84 242.286 220.279 263.057 241.051C300.477 278.471 361.365 278.472 398.785 241.051C436.205 203.631 436.205 142.743 398.785 105.322C361.366 67.9021 300.477 67.9011 263.057 105.322C244.727 123.652 234.812 147.944 234.929 173.413L236.709 171.498C239.341 168.666 243.77 168.504 246.602 171.136C249.434 173.768 249.596 178.197 246.964 181.029L232.246 196.867C230.834 198.387 228.817 199.209 226.747 199.092C224.675 198.982 222.758 197.958 221.515 196.297L208.706 179.187C206.389 176.092 207.02 171.706 210.115 169.389C213.209 167.072 217.596 167.702 219.913 170.798L220.928 172.154C221.13 143.443 232.463 116.119 253.157 95.4251C296.035 52.5471 365.804 52.5461 408.684 95.4251C451.562 138.304 451.562 208.073 408.684 250.951C365.806 293.829 296.037 293.831 253.157 250.951C235.03 232.824 210.928 222.842 185.293 222.842C159.658 222.842 135.556 232.824 117.429 250.951C99.3017 269.079 89.3177 293.18 89.3177 318.816C89.3177 344.452 99.3007 368.552 117.429 386.68C135.556 404.807 159.657 414.789 185.293 414.789C210.929 414.789 235.03 404.807 253.157 386.68C271.487 368.35 281.402 344.058 281.285 318.587L279.505 320.502C276.873 323.336 272.444 323.495 269.612 320.865C266.78 318.233 266.618 313.803 269.25 310.971L283.968 295.134C285.38 293.614 287.396 292.81 289.467 292.909C291.539 293.019 293.456 294.043 294.699 295.704L307.509 312.813V312.814ZM491.68 365.7C493.214 369.248 491.581 373.368 488.033 374.902L457.628 388.047C456.738 388.432 455.793 388.622 454.851 388.622C453.566 388.622 452.287 388.268 451.163 387.571C449.216 386.364 447.982 384.281 447.861 381.993L446.131 349.386C445.926 345.526 448.89 342.23 452.751 342.025C456.602 341.815 459.907 344.784 460.111 348.644L460.66 358.993C479.9 324.576 490.001 285.834 490.001 246.002C490.001 118.136 385.975 14.1091 258.108 14.1091C236.445 14.1091 215 17.0921 194.368 22.9771C190.646 24.0391 186.777 21.8831 185.717 18.1651C184.656 14.4471 186.811 10.5741 190.529 9.51406C212.41 3.27306 235.147 0.109056 258.109 0.109056C323.789 0.109056 385.538 25.687 431.981 72.1301C478.424 118.573 504.002 180.322 504.002 246.002C504.002 288.431 493.19 329.697 472.602 366.324L482.48 362.053C486.03 360.517 490.148 362.152 491.683 365.7H491.68ZM293.269 482.429C293.72 486.269 290.974 489.746 287.134 490.199C277.568 491.324 267.801 491.894 258.107 491.894C192.427 491.894 130.678 466.317 84.2347 419.873C37.7917 373.429 12.2147 311.68 12.2147 246C12.2147 225.41 14.7507 205.056 19.7637 185.307L11.3457 191.974C8.3147 194.374 3.9127 193.864 1.5127 190.833C-0.887303 187.802 -0.376303 183.4 2.6537 181L28.6207 160.433C30.4157 159.01 32.7957 158.555 34.9887 159.219C37.1827 159.881 38.9127 161.574 39.6227 163.753L49.7327 194.802C50.9297 198.478 48.9207 202.428 45.2447 203.625C41.5697 204.82 37.6187 202.813 36.4217 199.137L33.2057 189.26C28.5617 207.726 26.2147 226.752 26.2147 246.001C26.2147 373.867 130.241 477.894 258.108 477.894C267.258 477.894 276.474 477.356 285.501 476.294C289.343 475.848 292.819 478.589 293.271 482.429H293.269ZM439.612 425.243C432.313 418.536 423.846 413.451 414.718 410.144C423.104 402.986 428.435 392.35 428.435 380.487C428.435 358.986 410.942 341.493 389.44 341.493C367.938 341.493 350.445 358.986 350.445 380.487C350.445 392.35 355.777 402.986 364.162 410.144C355.034 413.451 346.566 418.536 339.267 425.243C325.638 437.766 317.22 454.779 315.565 473.148C315.546 473.357 315.537 473.566 315.537 473.776V484.893C315.537 488.759 318.671 491.893 322.537 491.893H456.341C460.207 491.893 463.341 488.759 463.341 484.893V473.776C463.341 473.566 463.331 473.357 463.313 473.148C461.658 454.779 453.241 437.766 439.611 425.243H439.612ZM389.44 355.493C403.222 355.493 414.435 366.705 414.435 380.487C414.435 394.269 403.222 405.482 389.44 405.482C375.658 405.482 364.445 394.269 364.445 380.487C364.445 366.705 375.657 355.493 389.44 355.493ZM449.342 477.893H329.538V474.099C332.486 443.062 358.185 419.699 389.44 419.699C420.695 419.699 446.394 443.062 449.342 474.099V477.893ZM59.8727 150.508H193.678C197.544 150.508 200.678 147.374 200.678 143.508V132.39C200.678 132.181 200.668 131.971 200.65 131.762C198.995 113.393 190.578 96.3801 176.948 83.8561C169.649 77.1501 161.182 72.0651 152.054 68.7581C160.439 61.6001 165.771 50.9651 165.771 39.1021C165.771 17.6001 148.278 0.107056 126.776 0.107056C105.274 0.107056 87.7807 17.6001 87.7807 39.1021C87.7807 50.9651 93.1127 61.6001 101.498 68.7581C92.3697 72.0651 83.9017 77.1501 76.6037 83.8561C62.9747 96.3801 54.5567 113.393 52.9017 131.762C52.8827 131.97 52.8737 132.18 52.8737 132.39V143.508C52.8737 147.374 56.0067 150.508 59.8727 150.508ZM126.775 14.1071C140.557 14.1071 151.77 25.3201 151.77 39.1021C151.77 52.8841 140.558 64.0971 126.775 64.0971C112.992 64.0971 101.78 52.8851 101.78 39.1021C101.78 25.3191 112.993 14.1071 126.775 14.1071ZM66.8717 132.713C69.8197 101.676 95.5187 78.3131 126.774 78.3131C158.029 78.3131 183.729 101.677 186.677 132.713V136.507H66.8717V132.713Z" fill="white"/>
</svg>
