<svg width="40" height="40" viewBox="0 0 40 40" fill="none" xmlns="http://www.w3.org/2000/svg">
<path d="M35.625 11.25H33.75V9.375C33.75 7.65 32.35 6.25 30.625 6.25H16.25V5C16.25 2.9375 14.5625 1.25 12.5 1.25H11.25C9.1875 1.25 7.5 2.9375 7.5 5V6.25H4.375C2.65 6.25 1.25 7.65 1.25 9.375V30.625C1.25 32.35 2.65 33.75 4.375 33.75H6.25V35.625C6.25 37.35 7.65 38.75 9.375 38.75H35.625C37.35 38.75 38.75 37.35 38.75 35.625V14.375C38.75 12.65 37.35 11.25 35.625 11.25ZM10 5C10 4.3125 10.5625 3.75 11.25 3.75H12.5C13.1875 3.75 13.75 4.3125 13.75 5V6.25H10V5ZM3.75 30.625V9.375C3.75 9.025 4.025 8.75 4.375 8.75H7.5V11.875C7.5 13.9375 9.1875 15.625 11.25 15.625H13.75C14.4375 15.625 15 15.0625 15 14.375C15 13.6875 14.4375 13.125 13.75 13.125H11.25C10.5625 13.125 10 12.5625 10 11.875V8.75H30.625C30.975 8.75 31.25 9.025 31.25 9.375V23.75H26.875C25.15 23.75 23.75 25.15 23.75 26.875V31.25H4.375C4.025 31.25 3.75 30.975 3.75 30.625ZM29.4875 26.25L26.25 29.4875V26.875C26.25 26.525 26.525 26.25 26.875 26.25H29.4875ZM36.25 35.625C36.25 35.975 35.975 36.25 35.625 36.25H9.375C9.025 36.25 8.75 35.975 8.75 35.625V33.75H25C25.3375 33.75 25.65 33.6125 25.8875 33.3875L33.3875 25.8875C33.625 25.65 33.75 25.3375 33.75 25V13.75H35.625C35.975 13.75 36.25 14.025 36.25 14.375V35.625Z" fill="#AF3B27"/>
<path d="M20 15.625H27.5C28.1875 15.625 28.75 15.0625 28.75 14.375C28.75 13.6875 28.1875 13.125 27.5 13.125H20C19.3125 13.125 18.75 13.6875 18.75 14.375C18.75 15.0625 19.3125 15.625 20 15.625Z" fill="#AF3B27"/>
<path d="M12.5 21.25H27.5C28.1875 21.25 28.75 20.6875 28.75 20C28.75 19.3125 28.1875 18.75 27.5 18.75H12.5C11.8125 18.75 11.25 19.3125 11.25 20C11.25 20.6875 11.8125 21.25 12.5 21.25Z" fill="#AF3B27"/>
<path d="M7.5 21.25H8.125C8.8125 21.25 9.375 20.6875 9.375 20C9.375 19.3125 8.8125 18.75 8.125 18.75H7.5C6.8125 18.75 6.25 19.3125 6.25 20C6.25 20.6875 6.8125 21.25 7.5 21.25Z" fill="#AF3B27"/>
<path d="M20 24.375H7.5C6.8125 24.375 6.25 24.9375 6.25 25.625C6.25 26.3125 6.8125 26.875 7.5 26.875H20C20.6875 26.875 21.25 26.3125 21.25 25.625C21.25 24.9375 20.6875 24.375 20 24.375Z" fill="#AF3B27"/>
</svg>
