<svg width="308" height="207" viewBox="0 0 308 207" fill="none" xmlns="http://www.w3.org/2000/svg">
<path d="M0.810887 153.299C0.810887 123.785 24.78 99.8588 54.3494 99.8587C66.7612 99.8587 78.1883 104.075 87.2647 111.144L84.9555 114.097C76.5152 107.524 65.8951 103.605 54.3494 103.605C26.8534 103.605 4.56435 125.854 4.56435 153.299C4.56441 180.734 26.8536 202.989 54.3494 202.989C66.083 202.989 76.8647 198.933 85.3755 192.163L87.7148 195.092C78.5649 202.371 66.9652 206.735 54.3494 206.735C24.78 206.735 0.810949 182.803 0.810887 153.299Z" fill="black"/>
<path d="M307.461 48.6921C307.461 75.1028 286.007 96.5265 259.538 96.5265C233.07 96.5265 211.615 75.1028 211.615 48.6921C211.615 22.2695 233.07 0.85733 259.538 0.85733C286.007 0.85733 307.461 22.2695 307.461 48.6921Z" fill="#AF3B27"/>
<path d="M143.39 38.3348C159.465 38.3348 174.151 42.5926 184.881 52.1981C195.476 61.6826 201.972 76.1644 202.338 96.209L202.351 97.1674V97.181L202.373 114.797L198.619 114.802L198.597 97.1857C198.428 77.4598 192.185 63.7682 182.375 54.9865C172.53 46.1732 158.843 42.0809 143.39 42.0809C128.03 42.081 114.21 47.0839 104.262 56.4019C94.3333 65.7017 88.1209 79.4298 88.1827 97.1766L88.146 206.936L84.3925 206.935L84.4292 97.1824C84.3659 78.5073 90.9315 63.7503 101.693 53.6702C112.437 43.6069 127.223 38.3348 143.39 38.3348Z" fill="black"/>
<path d="M144.535 62.3861C154.667 62.3861 163.988 65.6529 170.78 72.1612C177.588 78.6839 181.688 88.3023 181.659 100.671L181.718 131.205L177.965 131.212L177.906 100.678V100.669C177.934 89.1636 174.144 80.5774 168.181 74.8636C162.201 69.1339 153.868 66.1322 144.535 66.1322C135.151 66.1323 126.603 68.895 120.536 74.4861C114.601 79.9555 110.835 88.3184 111.147 100.044L111.167 100.638L111.167 100.672L111.315 206.933L107.562 206.938L107.414 100.711C106.939 87.7957 111.036 78.1414 117.99 71.7335C124.911 65.3552 134.452 62.3861 144.535 62.3861Z" fill="black"/>
<path d="M144.445 92.2361C148.114 92.2361 151.841 93.0955 154.57 96.2771C157.229 99.3777 158.622 104.327 158.608 111.721L158.656 206.934L154.903 206.936L154.854 111.718L154.852 111.066C154.783 104.421 153.456 100.739 151.718 98.7132C149.993 96.702 147.562 95.9822 144.445 95.9822C141.466 95.9822 138.925 96.9142 137.109 99.1368C135.302 101.348 133.988 105.107 134.024 111.242L134.031 111.843L134.032 111.861L134.092 206.871L130.339 206.874L130.278 111.881C130.146 104.948 131.556 100.006 134.2 96.7695C136.898 93.4676 140.636 92.2361 144.445 92.2361Z" fill="black"/>
<path d="M209.093 111.235C227.756 111.235 242.851 124.71 243.24 144.584L243.246 145.054L243.246 145.06V145.065L243.362 206.827L239.609 206.834L239.493 145.083L239.487 144.663C239.143 126.917 225.808 114.981 209.093 114.981C192.337 114.981 178.667 126.695 178.693 144.619L178.697 145.044V145.064L178.851 206.93L175.097 206.94L174.943 145.073L174.944 145.073C174.679 124.611 190.348 111.235 209.093 111.235Z" fill="black"/>
<path d="M209.888 129.398C219.434 129.398 226.656 137.609 226.657 149.795L226.7 206.934L222.947 206.937L222.903 149.797L222.899 149.296C222.712 138.863 216.672 133.145 209.888 133.145C203.086 133.145 197.029 139.491 197.029 150.336L197.051 206.83L193.298 206.832L193.276 150.336L193.281 149.773C193.495 137.993 200.408 129.399 209.888 129.398Z" fill="black"/>
</svg>
