<svg width="83" height="82" viewBox="0 0 83 82" fill="none" xmlns="http://www.w3.org/2000/svg">
<path d="M28.0956 37.952C26.7508 36.602 24.5658 36.5984 23.2163 37.9429C21.8663 39.2878 21.8624 41.4726 23.2072 42.8223L31.9534 51.5998C32.8924 52.5429 34.1418 53.0622 35.4723 53.0622H35.4757C36.8075 53.0613 38.0574 52.5405 38.9907 51.6007L81.2558 9.21675C82.6012 7.86727 82.5985 5.68295 81.2492 4.33739C79.9 2.99166 77.7154 2.99474 76.3698 4.34405L35.473 45.3561L28.0956 37.952Z" fill="#3EAF27"/>
<path d="M76.2741 29.6337C74.4086 30.0212 73.2097 31.8474 73.5971 33.7131C74.064 35.963 74.3008 38.2805 74.3008 40.6007C74.3008 59.1833 59.1831 74.301 40.6005 74.301C22.0183 74.301 6.90026 59.1833 6.90026 40.6007C6.90026 22.0182 22.0183 6.90043 40.6005 6.90043C45.8936 6.90043 50.9595 8.0918 55.6563 10.4416C57.3601 11.2943 59.4327 10.6036 60.2851 8.89947C61.1379 7.19516 60.4474 5.12286 58.7432 4.2701C53.0794 1.43674 46.9754 0 40.6007 0C18.2134 0.000170756 0 18.2134 0 40.6007C0 62.988 18.2134 81.2012 40.6005 81.2012C62.9877 81.2012 81.2012 62.988 81.2012 40.6007C81.2012 37.81 80.9159 35.0209 80.3536 32.3108C79.9663 30.4453 78.1401 29.2482 76.2741 29.6337Z" fill="#3EAF27"/>
</svg>
