<svg width="65" height="75" viewBox="0 0 65 75" fill="none" xmlns="http://www.w3.org/2000/svg">
<path d="M31.2515 45.5656C30.9582 45.5656 30.6838 45.4521 30.4662 45.2439C30.2581 45.0358 30.1445 44.7614 30.1445 44.4681C30.1445 43.8625 30.6365 43.3611 31.2515 43.3611H31.2894C31.8949 43.3611 32.3964 43.8531 32.3964 44.4681C32.3964 45.0831 31.9044 45.5751 31.2894 45.5751H31.2515V45.5656Z" fill="white"/>
<path d="M14.9976 45.5655C14.3921 45.5655 13.8906 45.0735 13.8906 44.4586C13.8906 43.8436 14.3826 43.3516 14.9976 43.3516H26.7203C27.3259 43.3516 27.8273 43.8436 27.8273 44.4586C27.8273 45.0735 27.3353 45.5655 26.7203 45.5655H14.9976Z" fill="white"/>
<path d="M47.3921 51.8761C46.7866 51.8761 46.2852 51.3841 46.2852 50.7691C46.2852 50.1541 46.7772 49.6621 47.3921 49.6621H47.43C48.0355 49.6621 48.537 50.1541 48.537 50.7691C48.537 51.3841 48.045 51.8761 47.43 51.8761H47.3921Z" fill="white"/>
<path d="M14.9976 51.8761C14.3921 51.8761 13.8906 51.3841 13.8906 50.7691C13.8906 50.1541 14.3826 49.6621 14.9976 49.6621H42.8615C43.467 49.6621 43.9685 50.1541 43.9685 50.7691C43.9685 51.3841 43.4765 51.8761 42.8615 51.8761H14.9976Z" fill="white"/>
<path d="M33.9205 68.6892C33.3149 68.6892 32.8135 68.1972 32.8135 67.5823V58.1776H14.9976C14.3921 58.1776 13.8906 57.6856 13.8906 57.0706C13.8906 56.4556 14.3826 55.9636 14.9976 55.9636H52.8433C53.1366 55.9636 53.411 56.0772 53.6192 56.2853C53.8273 56.4935 53.9408 56.7678 53.9408 57.0612C53.9408 57.6667 53.4489 58.1681 52.8339 58.1681H35.0275V67.5728C35.0275 68.1972 34.526 68.6892 33.9205 68.6892Z" fill="white"/>
<path d="M16.8413 74.9999C11.7322 74.9999 7.58806 70.8464 7.58806 65.7466V39.2641H3.95488C3.91703 39.2641 3.88865 39.2641 3.8508 39.2546L3.77511 39.2452C3.76565 39.2452 3.75619 39.2452 3.74673 39.2452C3.73726 39.2452 3.71834 39.2357 3.70888 39.2357L3.65211 39.2168C3.63319 39.2168 3.62373 39.2073 3.61427 39.2073L3.54804 39.1884C3.53857 39.1884 3.52911 39.179 3.51019 39.1695L3.46288 39.1506C3.45342 39.1506 3.44396 39.1411 3.44396 39.1411C3.4345 39.1316 3.41557 39.1222 3.39665 39.1127L3.34934 39.0843C3.33042 39.0749 3.3115 39.056 3.29258 39.037C3.28311 39.0276 3.27365 39.0181 3.26419 39.0181H3.27365C3.21689 38.9708 3.16958 38.9235 3.12227 38.8667C3.11281 38.8573 3.11281 38.8478 3.10335 38.8383C3.08442 38.8194 3.0655 38.791 3.05604 38.7721C3.04658 38.7532 3.03712 38.7437 3.03712 38.7343V38.7248C3.02766 38.7059 3.0182 38.6964 3.00873 38.6775L2.98981 38.6397C2.98035 38.6113 2.97089 38.5923 2.96143 38.5734C2.95197 38.5545 2.95197 38.545 2.95197 38.5356C2.9425 38.5167 2.93304 38.4977 2.93304 38.4693L2.92358 38.441C2.91412 38.4126 2.91412 38.3937 2.90466 38.3653C2.90466 38.3558 2.90466 38.3463 2.90466 38.3369V38.3274C2.90466 38.3085 2.8952 38.2896 2.8952 38.2707C2.8952 38.2612 2.8952 38.2517 2.8952 38.2423C2.8952 38.2139 2.8952 38.1855 2.8952 38.1571V28.866L0.0567688 20.0196C0.0473073 19.9912 0.0378456 19.9533 0.0283842 19.9249C0.0283842 19.9155 0.0283844 19.8966 0.0189229 19.8871C0.0094615 19.8587 0.00946164 19.8398 0.00946164 19.8114V19.783C0.00946164 19.7546 0 19.7263 0 19.7073C0 19.6979 0 19.6884 0 19.6789C0 19.6506 0 19.6222 0 19.5938C0 19.5843 0 19.5843 0 19.5749C0 19.537 0.00946164 19.5086 0.00946164 19.4803V19.4613C0.0189231 19.433 0.0189228 19.4046 0.0283842 19.3762C0.0378456 19.3573 0.0378458 19.3478 0.0378458 19.3383V19.3289C0.0473073 19.31 0.0473073 19.291 0.0567688 19.2721C0.0662302 19.2343 0.0851531 19.2059 0.104076 19.168C0.122999 19.1396 0.141921 19.1018 0.160844 19.0734C0.179767 19.045 0.189229 19.0261 0.208151 19.0072C0.217613 18.9977 0.227074 18.9883 0.227074 18.9788C0.245997 18.9599 0.26492 18.941 0.283843 18.9126L0.293304 18.8937C0.312227 18.8747 0.33115 18.8558 0.359534 18.8369L0.368996 18.8274C0.387919 18.8085 0.416303 18.7896 0.435226 18.7801L0.454148 18.7707C0.482533 18.7517 0.501456 18.7423 0.52984 18.7233C0.539302 18.7233 0.548763 18.7139 0.548763 18.7139C0.577147 18.7044 0.59607 18.6855 0.624454 18.676C0.633916 18.676 0.633916 18.6666 0.643377 18.6666C0.671761 18.6571 0.709607 18.6382 0.737991 18.6287L57.7809 0.311407C57.8945 0.273562 58.008 0.254639 58.1215 0.254639C58.2918 0.254639 58.4716 0.292484 58.623 0.377637C58.8785 0.510097 59.0772 0.746633 59.1718 1.02101L62.067 10.0188C62.067 10.0283 62.0764 10.0378 62.0764 10.0472C62.0859 10.0756 62.0953 10.104 62.1048 10.1418C62.1048 10.1513 62.1143 10.1891 62.1143 10.1891L62.1237 10.2175C62.1237 10.227 62.1237 10.2364 62.1237 10.2364C62.1237 10.2459 62.1237 10.2648 62.1237 10.2743L62.1332 10.35C62.1332 10.3594 62.1332 10.3784 62.1332 10.3878V10.4257C62.1332 10.4351 62.1332 10.4446 62.1332 10.4541C62.1332 10.4635 62.1332 10.473 62.1332 10.4824L62.1237 10.5297C62.1237 10.5392 62.1237 10.5487 62.1237 10.5581C62.1237 10.5676 62.1237 10.5771 62.1143 10.5771L62.1048 10.6338C62.1048 10.6433 62.1048 10.6527 62.0953 10.6622C62.0953 10.6717 62.0859 10.6906 62.0859 10.7001C62.0859 10.7001 62.067 10.7663 62.0575 10.7663C62.048 10.7947 62.0291 10.8325 62.0197 10.8609L62.0102 10.8704C61.9913 10.9082 61.9723 10.9366 61.944 10.9839C61.9345 10.9934 61.9345 11.0028 61.925 11.0123C61.8967 11.0501 61.8777 11.0785 61.8493 11.1069C61.8399 11.1164 61.8399 11.1258 61.8304 11.1258C61.8115 11.1447 61.7737 11.1731 61.7358 11.211L61.7074 11.2299C61.679 11.2488 61.6507 11.2677 61.6223 11.2867L61.6034 11.2961C61.556 11.3245 61.5182 11.3434 61.4898 11.3529C61.4804 11.3529 61.4709 11.3624 61.4614 11.3624C61.433 11.3718 61.4047 11.3813 61.3763 11.3907L13.8799 26.6709L14.0218 27.5982H63.8646C63.8741 27.5982 63.8836 27.5982 63.893 27.5982C63.9309 27.5982 63.9592 27.5982 63.9876 27.5982C63.9971 27.5982 64.0728 27.6076 64.0728 27.6076C64.0822 27.6076 64.0917 27.6076 64.0917 27.6076C64.1106 27.6076 64.1201 27.6171 64.139 27.6171L64.2052 27.636C64.2147 27.636 64.2336 27.6455 64.2431 27.6455L64.2809 27.6644C64.2904 27.6644 64.2999 27.6739 64.2999 27.6739C64.3093 27.6833 64.3188 27.6833 64.3282 27.6928L64.3755 27.7117C64.385 27.7117 64.3945 27.7212 64.3945 27.7212C64.4039 27.7306 64.4134 27.7306 64.4229 27.7401L64.4607 27.7685C64.4702 27.7779 64.4796 27.7779 64.4891 27.7874C64.4986 27.7969 64.508 27.7969 64.5175 27.8063L64.5837 27.8536C64.6121 27.8725 64.631 27.9009 64.6594 27.9199L64.6783 27.9388C64.6972 27.9577 64.7162 27.9861 64.7351 28.005L64.7824 28.0618C64.7919 28.0712 64.7919 28.0807 64.8013 28.0902C64.8108 28.0996 64.8108 28.1091 64.8202 28.1185L64.8486 28.1564C64.8486 28.1658 64.8581 28.1753 64.8581 28.1753C64.8675 28.1848 64.8675 28.2037 64.877 28.2132L64.8959 28.251C64.8959 28.2605 64.9054 28.2699 64.9054 28.2699C64.9054 28.2794 64.9149 28.2888 64.9149 28.2983L64.9338 28.3456C64.9338 28.3551 64.9432 28.3645 64.9432 28.374C64.9432 28.3835 64.9527 28.3929 64.9527 28.4024L64.9622 28.4497C64.9622 28.4592 64.9716 28.4686 64.9716 28.4781C64.9716 28.4875 64.9716 28.497 64.9811 28.5159L64.9905 28.5916C64.9905 28.6295 65 28.6578 65 28.6957V38.1571C65 38.7626 64.508 39.2641 63.893 39.2641H60.2693V65.7466C60.2693 70.8558 56.1157 74.9999 51.016 74.9999H16.8413ZM9.79258 65.7372C9.79258 69.6258 12.9527 72.7859 16.8413 72.7859H50.9971C54.8857 72.7859 58.0459 69.6258 58.0459 65.7372V39.2546H9.79258V65.7372ZM31.8566 37.0501H41.3464L48.6034 29.7932H39.1041L31.8566 37.0501ZM19.2351 37.0501H28.7249L35.9818 29.7932H26.492L19.2351 37.0501ZM57.0808 37.0501H62.7766V31.3544L57.0808 37.0501ZM44.4687 37.0501H53.9585L61.2154 29.7932H51.7256L44.4687 37.0501ZM6.623 37.0501H16.1128L23.3697 29.7932H13.8799L6.623 37.0501ZM5.06186 35.489L10.7576 29.7932H5.06186V35.489ZM4.67394 27.3049L10.0953 25.564L2.93304 21.8835L4.67394 27.3049ZM3.93595 19.9249L13.0568 24.6084L22.0924 21.7037L12.9811 17.0203L3.93595 19.9249ZM15.952 16.0647L25.0728 20.7481L34.1084 17.8434L24.9876 13.16L15.952 16.0647ZM27.9585 12.2044L37.0793 16.8878L46.115 13.9832L36.9942 9.29976L27.9585 12.2044ZM39.9745 8.34416L49.0953 13.0276L58.131 10.1229L49.0102 5.4395L39.9745 8.34416ZM51.9811 4.4839L59.1434 8.16439L57.4025 2.74299L51.9811 4.4839Z" fill="white"/>
</svg>
