<svg width="65" height="65" viewBox="0 0 65 65" fill="none" xmlns="http://www.w3.org/2000/svg">
<g clip-path="url(#clip0_613_2607)">
<path d="M6.16972 50.7812C6.35289 50.7811 6.5326 50.7314 6.68984 50.6375C6.84708 50.5435 6.97598 50.4088 7.06289 50.2475C7.1498 50.0863 7.1915 49.9046 7.18355 49.7216C7.17561 49.5386 7.11833 49.3611 7.01777 49.208C4.18475 44.8814 2.49787 39.9056 2.11556 34.7481C1.73324 29.5906 2.66803 24.4205 4.83214 19.7234C4.8892 19.6023 4.92173 19.471 4.92785 19.3372C4.93397 19.2034 4.91356 19.0697 4.86781 18.9438C4.82205 18.8179 4.75185 18.7023 4.66124 18.6037C4.57063 18.5051 4.46141 18.4253 4.33985 18.3691C4.2183 18.3128 4.08682 18.2812 3.95299 18.2759C3.81915 18.2707 3.6856 18.292 3.56002 18.3386C3.43445 18.3851 3.31933 18.4561 3.22129 18.5474C3.12325 18.6386 3.04423 18.7484 2.98878 18.8703C0.680408 23.8812 -0.316287 29.3967 0.0923275 34.8986C0.500942 40.4005 2.30145 45.7082 5.32472 50.3232C5.4168 50.4634 5.54216 50.5786 5.6896 50.6585C5.83705 50.7384 6.002 50.7806 6.16972 50.7812Z" fill="#1A1919"/>
<path d="M49.2087 57.9829C44.2437 61.2354 38.4372 62.9679 32.5017 62.9679C26.5662 62.9679 20.7597 61.2354 15.7947 57.9829C15.6832 57.9096 15.5583 57.8589 15.4272 57.8338C15.2961 57.8087 15.1614 57.8097 15.0307 57.8366C14.9 57.8636 14.7758 57.9161 14.6654 57.991C14.555 58.066 14.4604 58.1619 14.387 58.2734C14.3136 58.3849 14.263 58.5098 14.2379 58.6409C14.2128 58.7719 14.2137 58.9067 14.2407 59.0374C14.2677 59.1681 14.3201 59.2922 14.3951 59.4027C14.47 59.5131 14.566 59.6077 14.6775 59.6811C19.9743 63.1517 26.1691 65.0005 32.5017 65.0005C38.8343 65.0005 45.0291 63.1517 50.3259 59.6811C50.5511 59.5329 50.7082 59.3014 50.7627 59.0374C50.8171 58.7734 50.7645 58.4986 50.6164 58.2734C50.4682 58.0482 50.2367 57.8911 49.9727 57.8366C49.7087 57.7822 49.4339 57.8348 49.2087 57.9829Z" fill="#1A1919"/>
<path d="M58.2747 50.6147C58.3862 50.6879 58.511 50.7385 58.642 50.7635C58.7731 50.7885 58.9077 50.7874 59.0384 50.7603C59.169 50.7333 59.293 50.6807 59.4033 50.6057C59.5136 50.5307 59.6081 50.4347 59.6813 50.3232C62.4897 46.0329 64.2454 41.1401 64.8054 36.043C65.3654 30.9459 64.7139 25.7886 62.9039 20.991C62.8084 20.7388 62.6167 20.535 62.3709 20.4242C62.1251 20.3135 61.8453 20.3049 61.5932 20.4004C61.3411 20.4959 61.1372 20.6876 61.0265 20.9334C60.9157 21.1792 60.9071 21.4589 61.0026 21.711C62.7 26.2084 63.3112 31.043 62.7865 35.8212C62.2618 40.5995 60.616 45.1862 57.9832 49.2081C57.9099 49.3196 57.8594 49.4444 57.8344 49.5754C57.8094 49.7065 57.8105 49.8411 57.8375 49.9718C57.8646 50.1024 57.9171 50.2264 57.9921 50.3367C58.0671 50.447 58.1631 50.5415 58.2747 50.6147Z" fill="#1A1919"/>
<path d="M15.35 7.10937C15.5466 7.10894 15.7389 7.05143 15.9035 6.94382C19.9218 4.33906 24.4964 2.71584 29.2578 2.20526C34.0192 1.69468 38.834 2.31106 43.3132 4.00461C43.4386 4.05518 43.5728 4.0802 43.708 4.07822C43.8432 4.07623 43.9766 4.04727 44.1005 3.99303C44.2243 3.9388 44.3361 3.86038 44.4292 3.76238C44.5224 3.66437 44.595 3.54876 44.6429 3.42231C44.6908 3.29587 44.7129 3.16114 44.708 3.02602C44.7031 2.8909 44.6713 2.75812 44.6145 2.63546C44.5576 2.5128 44.4768 2.40273 44.3768 2.31171C44.2768 2.22069 44.1597 2.15054 44.0322 2.10539C39.2543 0.298424 34.1182 -0.359129 29.0391 0.185868C23.96 0.730865 19.0803 2.46312 14.7944 5.24265C14.6109 5.36217 14.4709 5.53783 14.3953 5.74342C14.3198 5.94901 14.3127 6.17351 14.3752 6.38345C14.4377 6.59338 14.5664 6.77749 14.742 6.90831C14.9177 7.03914 15.131 7.10966 15.35 7.10937Z" fill="#1A1919"/>
<path d="M9.91414 26.4296C9.78383 26.4007 9.6491 26.3978 9.51766 26.421C9.38622 26.4442 9.26065 26.4931 9.14812 26.5649C9.03559 26.6367 8.93831 26.7299 8.86185 26.8393C8.78539 26.9487 8.73124 27.0721 8.7025 27.2025C7.42942 32.9591 8.27692 38.9817 11.0892 44.1634C11.1776 44.3232 11.3075 44.4563 11.4651 44.5485C11.6228 44.6407 11.8024 44.6887 11.985 44.6875C12.1544 44.6878 12.321 44.6451 12.4695 44.5636C12.5867 44.4998 12.6901 44.4135 12.774 44.3097C12.8579 44.2059 12.9204 44.0866 12.9582 43.9587C12.9959 43.8307 13.008 43.6965 12.9939 43.5638C12.9797 43.4311 12.9396 43.3025 12.8757 43.1854C10.3003 38.4377 9.52386 32.9204 10.6891 27.6463C10.7187 27.5155 10.7221 27.3801 10.6991 27.248C10.6761 27.1159 10.6272 26.9896 10.5551 26.8765C10.4831 26.7634 10.3894 26.6656 10.2793 26.5889C10.1693 26.5122 10.0452 26.4581 9.91414 26.4296Z" fill="#1A1919"/>
<path d="M20.0756 52.3109C20.0095 52.4268 19.967 52.5545 19.9503 52.6869C19.9337 52.8192 19.9433 52.9536 19.9785 53.0822C20.0138 53.2108 20.0741 53.3313 20.1559 53.4366C20.2377 53.542 20.3395 53.6302 20.4554 53.6962C24.1279 55.7801 28.2782 56.8756 32.5007 56.8756C36.7233 56.8756 40.8736 55.7801 44.546 53.6962C44.7801 53.5629 44.9516 53.342 45.0229 53.0822C45.0941 52.8224 45.0592 52.5449 44.9259 52.3109C44.8599 52.195 44.7716 52.0932 44.6663 52.0114C44.561 51.9296 44.4405 51.8693 44.3119 51.834C44.0521 51.7628 43.7746 51.7977 43.5406 51.931C40.1746 53.8408 36.3707 54.8448 32.5007 54.8448C28.6307 54.8448 24.8268 53.8408 21.4609 51.931C21.345 51.865 21.2172 51.8224 21.0849 51.8058C20.9525 51.7891 20.8182 51.7987 20.6895 51.834C20.5609 51.8693 20.4405 51.9295 20.3351 52.0114C20.2298 52.0932 20.1416 52.195 20.0756 52.3109Z" fill="#1A1919"/>
<path d="M52.31 44.9251C52.4259 44.9911 52.5537 45.0337 52.686 45.0503C52.8184 45.067 52.9527 45.0574 53.0813 45.0221C53.21 44.9868 53.3304 44.9266 53.4358 44.8447C53.5411 44.7629 53.6293 44.6611 53.6953 44.5452C55.7805 40.8732 56.8762 36.7226 56.8752 32.4999C56.875 31.0796 56.7524 29.662 56.5086 28.2627C56.4623 27.9973 56.3124 27.7611 56.0919 27.6062C55.8715 27.4512 55.5985 27.3902 55.333 27.4365C55.0676 27.4829 54.8314 27.6327 54.6764 27.8532C54.5215 28.0737 54.4605 28.3467 54.5068 28.6121C55.4058 33.7369 54.4949 39.0148 51.9302 43.5418C51.7974 43.7757 51.7629 44.0526 51.8341 44.312C51.9053 44.5713 52.0765 44.7918 52.31 44.9251Z" fill="#1A1919"/>
<path d="M20.8418 11.0886C20.7247 11.1525 20.6213 11.2388 20.5376 11.3427C20.4539 11.4465 20.3914 11.5658 20.3538 11.6938C20.3161 11.8218 20.3041 11.9559 20.3183 12.0885C20.3325 12.2212 20.3727 12.3497 20.4366 12.4668C20.5005 12.5839 20.5868 12.6873 20.6906 12.771C20.7945 12.8548 20.9138 12.9172 21.0417 12.9549C21.1697 12.9925 21.3039 13.0045 21.4365 12.9903C21.5691 12.9761 21.6977 12.9359 21.8148 12.872C26.2697 10.4726 31.4002 9.63517 36.387 10.4934C36.5183 10.5165 36.653 10.5135 36.7832 10.4845C36.9134 10.4556 37.0366 10.4013 37.1458 10.3247C37.255 10.2481 37.3481 10.1508 37.4197 10.0382C37.4913 9.92568 37.54 9.80013 37.5631 9.66876C37.5861 9.53739 37.5831 9.40276 37.5541 9.27255C37.5252 9.14235 37.4709 9.01913 37.3943 8.90992C37.3177 8.80071 37.2204 8.70765 37.1078 8.63606C36.9953 8.56447 36.8697 8.51574 36.7384 8.49267C31.2983 7.55479 25.7009 8.46886 20.8418 11.0886Z" fill="#1A1919"/>
<path d="M39.5579 33.8132C39.3664 33.6282 39.1098 33.5258 38.8435 33.5281C38.5773 33.5304 38.3225 33.6372 38.1342 33.8255C37.9459 34.0138 37.8391 34.2686 37.8368 34.5349C37.8345 34.8012 37.9368 35.0577 38.1218 35.2493L44.7173 41.8437L41.9751 44.5859L39.0806 40.5346C38.9485 40.3494 38.7581 40.2139 38.5399 40.1499C38.3217 40.0858 38.0883 40.0968 37.8771 40.1811L30.6966 43.0543C30.5707 43.1024 30.4557 43.1749 30.3581 43.2678C30.2606 43.3608 30.1825 43.4722 30.1284 43.5955C30.0743 43.7189 30.0453 43.8518 30.0431 43.9865C30.0409 44.1212 30.0655 44.255 30.1155 44.3801C30.1655 44.5052 30.2398 44.6191 30.3343 44.7152C30.4287 44.8113 30.5413 44.8876 30.6655 44.9397C30.7897 44.9919 30.9231 45.0188 31.0578 45.0189C31.1925 45.019 31.3259 44.9923 31.4502 44.9404L37.8913 42.3637L41.0194 46.7421C41.0517 46.7877 41.0877 46.8305 41.1271 46.87L58.3622 64.1052C58.6452 64.3882 58.9811 64.6127 59.3508 64.7658C59.7205 64.919 60.1167 64.9978 60.5169 64.9978C60.917 64.9978 61.3133 64.919 61.683 64.7658C62.0527 64.6127 62.3886 64.3882 62.6715 64.1052L64.1076 62.6691C64.3906 62.3862 64.6151 62.0503 64.7682 61.6806C64.9214 61.3109 65.0002 60.9146 65.0002 60.5145C65.0002 60.1143 64.9214 59.7181 64.7682 59.3484C64.6151 58.9787 64.3906 58.6428 64.1076 58.3598L39.5579 33.8132ZM62.6715 61.2351L61.2354 62.6711C61.0421 62.856 60.7849 62.9592 60.5174 62.9592C60.2499 62.9592 59.9927 62.856 59.7993 62.6711L43.2812 46.154L46.1534 43.2808L62.6715 59.7979C62.766 59.8923 62.8409 60.0043 62.892 60.1276C62.9431 60.2509 62.9694 60.383 62.9694 60.5165C62.9694 60.65 62.9431 60.7821 62.892 60.9054C62.8409 61.0287 62.766 61.1407 62.6715 61.2351Z" fill="#1A1919"/>
<path d="M8.80982 23.1725L20.8866 35.2493C21.0782 35.4343 21.3347 35.5367 21.601 35.5344C21.8673 35.532 22.122 35.4252 22.3103 35.2369C22.4986 35.0486 22.6055 34.7939 22.6078 34.5276C22.6101 34.2613 22.5077 34.0047 22.3227 33.8132L10.2875 21.7801C10.186 21.6623 0.253176 10.3035 5.97724 3.10476L29.751 26.8775C29.9425 27.0625 30.1991 27.1649 30.4654 27.1626C30.7317 27.1602 30.9864 27.0534 31.1747 26.8651C31.363 26.6768 31.4698 26.4221 31.4721 26.1558C31.4745 25.8895 31.3721 25.633 31.1871 25.4414L6.65568 0.91406C6.46522 0.72366 6.20694 0.616699 5.93763 0.616699C5.66832 0.616699 5.41004 0.72366 5.21958 0.91406C1.66489 4.46875 1.18958 9.4839 3.84239 15.4223C5.13115 18.2233 6.80295 20.8317 8.80982 23.1725Z" fill="#1A1919"/>
<path d="M12.4858 13.5007C12.2954 13.6912 12.1885 13.9495 12.1885 14.2188C12.1885 14.4881 12.2954 14.7464 12.4858 14.9368L21.6265 24.0774C21.818 24.2625 22.0746 24.3648 22.3409 24.3625C22.6071 24.3602 22.8619 24.2534 23.0502 24.0651C23.2385 23.8768 23.3453 23.622 23.3476 23.3557C23.3499 23.0895 23.2476 22.8329 23.0626 22.6414L13.9219 13.5007C13.7315 13.3103 13.4732 13.2034 13.2039 13.2034C12.9346 13.2034 12.6763 13.3103 12.4858 13.5007Z" fill="#1A1919"/>
<path d="M24.6733 25.6882C24.4829 25.8787 24.376 26.137 24.376 26.4063C24.376 26.6756 24.4829 26.9339 24.6733 27.1243L25.689 28.1399C25.8805 28.325 26.1371 28.4273 26.4034 28.425C26.6696 28.4227 26.9244 28.3159 27.1127 28.1276C27.301 27.9393 27.4078 27.6845 27.4101 27.4182C27.4124 27.152 27.3101 26.8954 27.1251 26.7039L26.1094 25.6882C25.919 25.4978 25.6607 25.3909 25.3914 25.3909C25.1221 25.3909 24.8638 25.4978 24.6733 25.6882Z" fill="#1A1919"/>
<path d="M53.2192 27.5834L64.7069 15.9454C64.8034 15.8477 64.8792 15.7315 64.9295 15.6037C64.9798 15.4759 65.0037 15.3393 64.9997 15.202C64.9958 15.0647 64.964 14.9297 64.9063 14.805C64.8486 14.6804 64.7663 14.5687 64.6642 14.4768L63.2454 13.2032C62.6634 12.6582 61.8948 12.3566 61.0974 12.3604C60.3 12.3642 59.5343 12.673 58.9574 13.2235L48.9028 23.2782C48.8057 23.3697 48.6911 23.4406 48.566 23.4869C48.4409 23.5331 48.3078 23.5537 48.1745 23.5473C47.9122 23.5503 47.6583 23.4542 47.4636 23.2782C47.289 23.0813 47.192 22.8275 47.1909 22.5644C47.1898 22.3012 47.2845 22.0466 47.4575 21.8482L57.5843 11.8951C57.6809 11.801 57.7578 11.6885 57.8104 11.5644C57.8631 11.4402 57.8905 11.3068 57.891 11.172V8.12508C57.891 7.85572 57.784 7.59739 57.5936 7.40693C57.4031 7.21646 57.1448 7.10946 56.8754 7.10946H53.8285C53.6936 7.10961 53.5601 7.13663 53.4358 7.18895C53.3115 7.24126 53.1988 7.31782 53.1044 7.41415L43.1584 17.5348C42.9602 17.7099 42.7048 17.8065 42.4403 17.8065C42.1759 17.8065 41.9205 17.7099 41.7223 17.5348C41.5459 17.3404 41.4497 17.0864 41.4531 16.8239C41.4473 16.6907 41.4681 16.5577 41.5144 16.4327C41.5606 16.3077 41.6313 16.1931 41.7223 16.0957L51.777 6.04102C52.3417 5.47704 52.662 4.71358 52.6686 3.91549C52.6753 3.1174 52.3678 2.34871 51.8125 1.77539L50.5196 0.336254C50.4278 0.234831 50.3163 0.153019 50.1921 0.0957301C50.0678 0.0384408 49.9332 0.00685596 49.7965 0.00287196C49.6597 -0.00111205 49.5235 0.022587 49.3961 0.0725461C49.2687 0.122505 49.1527 0.197694 49.0551 0.293598L37.411 11.7884C37.351 11.8484 31.6595 17.6709 34.9735 24.2806L0.891107 58.364C0.319906 58.9354 -0.000976563 59.7102 -0.000976562 60.5181C-0.000976563 61.3261 0.319906 62.1009 0.891107 62.6723L2.32822 64.1084C2.89959 64.6796 3.67444 65.0005 4.48236 65.0005C5.29028 65.0005 6.06512 64.6796 6.6365 64.1084L40.7199 30.025C47.3346 33.3441 53.1521 27.6484 53.2192 27.5834ZM5.20142 62.6713C5.01096 62.8617 4.75268 62.9686 4.48337 62.9686C4.21407 62.9686 3.95578 62.8617 3.76533 62.6713L2.32923 61.2352C2.2348 61.1408 2.15989 61.0288 2.10878 60.9055C2.05767 60.7822 2.03136 60.6501 2.03136 60.5166C2.03136 60.3831 2.05767 60.251 2.10878 60.1277C2.15989 60.0044 2.2348 59.8924 2.32923 59.7981L18.8463 43.2809L21.7195 46.1542L5.20142 62.6713ZM39.8231 28.0506L23.1567 44.7181L20.2835 41.8438L36.9509 25.1774C37.1107 25.0177 37.2126 24.8091 37.2406 24.5849C37.2685 24.3607 37.2209 24.1335 37.1053 23.9394C33.8126 18.4144 38.6439 13.4317 38.845 13.2286L49.7234 2.48532L50.3388 3.16985C50.4333 3.26417 50.5082 3.37618 50.5593 3.49948C50.6104 3.62277 50.6367 3.75493 50.6367 3.8884C50.6367 4.02187 50.6104 4.15403 50.5593 4.27733C50.5082 4.40062 50.4333 4.51263 50.3388 4.60696L40.2842 14.6616C39.9987 14.951 39.7748 15.2952 39.6261 15.6734C39.4774 16.0517 39.4069 16.4562 39.4188 16.8625C39.4264 17.6502 39.7362 18.405 40.2842 18.9709C40.8666 19.524 41.6394 19.8318 42.4426 19.8307C43.2457 19.8296 44.0177 19.5195 44.5985 18.9648L54.2541 9.14071H55.8598V10.7464L46.0306 20.406C45.478 20.9871 45.1699 21.7583 45.1699 22.5602C45.1699 23.362 45.478 24.1332 46.0306 24.7143C46.5965 25.2622 47.3513 25.5716 48.139 25.5786C48.5455 25.5946 48.951 25.5261 49.3296 25.3773C49.7083 25.2285 50.052 25.0028 50.3388 24.7143L60.3935 14.6596C60.5868 14.475 60.8438 14.372 61.1111 14.372C61.3783 14.372 61.6353 14.475 61.8286 14.6596L61.8672 14.6972L62.5131 15.2771L51.777 26.1514C51.7262 26.2022 46.6105 31.2031 41.0611 27.8963C40.867 27.7806 40.6398 27.733 40.4156 27.7609C40.1913 27.7889 39.9828 27.8908 39.8231 28.0506Z" fill="#1A1919"/>
</g>
<defs>
<clipPath id="clip0_613_2607">
<rect width="65" height="65" fill="white"/>
</clipPath>
</defs>
</svg>
