<svg width="65" height="65" viewBox="0 0 65 65" fill="none" xmlns="http://www.w3.org/2000/svg">
<path d="M6.1707 50.7808C6.35386 50.7806 6.53358 50.7309 6.69082 50.637C6.84805 50.543 6.97695 50.4083 7.06387 50.247C7.15078 50.0858 7.19247 49.9041 7.18453 49.7211C7.17659 49.5381 7.1193 49.3606 7.01874 49.2076C4.18572 44.8809 2.49885 39.9051 2.11654 34.7476C1.73422 29.5901 2.66901 24.42 4.83312 19.7229C4.89018 19.6018 4.9227 19.4705 4.92882 19.3367C4.93494 19.2029 4.91454 19.0692 4.86878 18.9433C4.82303 18.8174 4.75283 18.7019 4.66222 18.6032C4.57161 18.5046 4.46238 18.4248 4.34083 18.3686C4.21928 18.3123 4.0878 18.2807 3.95396 18.2754C3.82013 18.2702 3.68658 18.2915 3.561 18.3381C3.43542 18.3847 3.3203 18.4556 3.22227 18.5469C3.12423 18.6381 3.04521 18.7479 2.98976 18.8698C0.681385 23.8807 -0.31531 29.3962 0.093304 34.8981C0.501918 40.4 2.30243 45.7078 5.3257 50.3227C5.41777 50.4629 5.54313 50.5781 5.69058 50.658C5.83803 50.7379 6.00298 50.7801 6.1707 50.7808Z" fill="white"/>
<path d="M49.2097 57.9825C44.2446 61.2349 38.4382 62.9674 32.5027 62.9674C26.5671 62.9674 20.7607 61.2349 15.7956 57.9825C15.6841 57.9091 15.5593 57.8584 15.4282 57.8333C15.2971 57.8082 15.1624 57.8092 15.0316 57.8362C14.9009 57.8631 14.7768 57.9156 14.6664 57.9905C14.5559 58.0655 14.4613 58.1614 14.388 58.2729C14.3146 58.3844 14.2639 58.5093 14.2388 58.6404C14.2137 58.7715 14.2147 58.9062 14.2417 59.0369C14.2686 59.1676 14.3211 59.2918 14.396 59.4022C14.471 59.5126 14.5669 59.6072 14.6784 59.6806C19.9753 63.1512 26.1701 65 32.5027 65C38.8352 65 45.0301 63.1512 50.3269 59.6806C50.5521 59.5324 50.7092 59.3009 50.7636 59.0369C50.8181 58.7729 50.7655 58.4981 50.6174 58.2729C50.4692 58.0477 50.2377 57.8906 49.9737 57.8362C49.7097 57.7817 49.4349 57.8343 49.2097 57.9825Z" fill="white"/>
<path d="M58.2756 50.6142C58.3871 50.6875 58.512 50.738 58.643 50.763C58.774 50.788 58.9087 50.7869 59.0393 50.7599C59.17 50.7328 59.294 50.6803 59.4043 50.6053C59.5146 50.5303 59.6091 50.4342 59.6823 50.3227C62.4907 46.0324 64.2464 41.1396 64.8064 36.0425C65.3664 30.9454 64.7149 25.7882 62.9049 20.9905C62.8094 20.7383 62.6176 20.5345 62.3718 20.4237C62.126 20.313 61.8463 20.3044 61.5942 20.3999C61.3421 20.4954 61.1382 20.6871 61.0275 20.9329C60.9167 21.1787 60.9081 21.4584 61.0036 21.7105C62.701 26.2079 63.3122 31.0425 62.7875 35.8207C62.2628 40.599 60.617 45.1857 57.9842 49.2076C57.9109 49.3191 57.8604 49.4439 57.8354 49.5749C57.8104 49.706 57.8114 49.8407 57.8385 49.9713C57.8656 50.1019 57.9181 50.2259 57.9931 50.3362C58.0681 50.4465 58.1641 50.541 58.2756 50.6142Z" fill="white"/>
<path d="M15.351 7.10888C15.5476 7.10845 15.7399 7.05094 15.9045 6.94334C19.9228 4.33857 24.4974 2.71535 29.2588 2.20477C34.0202 1.69419 38.8349 2.31057 43.3142 4.00412C43.4396 4.05469 43.5738 4.07971 43.709 4.07773C43.8442 4.07574 43.9776 4.04678 44.1014 3.99254C44.2253 3.93831 44.3371 3.85989 44.4302 3.76189C44.5234 3.66389 44.596 3.54827 44.6439 3.42183C44.6917 3.29538 44.7139 3.16065 44.709 3.02553C44.7041 2.89042 44.6723 2.75763 44.6154 2.63497C44.5586 2.51231 44.4778 2.40224 44.3778 2.31122C44.2778 2.2202 44.1607 2.15005 44.0332 2.1049C39.2552 0.297936 34.1191 -0.359617 29.04 0.18538C23.9609 0.730376 19.0813 2.46263 14.7954 5.24216C14.6119 5.36168 14.4719 5.53734 14.3963 5.74293C14.3208 5.94852 14.3137 6.17302 14.3762 6.38296C14.4387 6.59289 14.5673 6.777 14.743 6.90782C14.9187 7.03865 15.1319 7.10917 15.351 7.10888Z" fill="white"/>
<path d="M9.91512 26.4291C9.78481 26.4002 9.65008 26.3973 9.51864 26.4205C9.3872 26.4437 9.26162 26.4926 9.14909 26.5644C9.03656 26.6362 8.93929 26.7294 8.86282 26.8388C8.78636 26.9482 8.73221 27.0717 8.70348 27.202C7.4304 32.9586 8.2779 38.9812 11.0902 44.1629C11.1786 44.3228 11.3085 44.4558 11.4661 44.548C11.6237 44.6402 11.8033 44.6883 11.986 44.687C12.1553 44.6873 12.322 44.6447 12.4704 44.5631C12.5876 44.4993 12.6911 44.4131 12.775 44.3093C12.8588 44.2055 12.9214 44.0862 12.9591 43.9582C12.9969 43.8302 13.009 43.696 12.9949 43.5633C12.9807 43.4306 12.9406 43.302 12.8767 43.1849C10.3012 38.4372 9.52483 32.9199 10.69 27.6458C10.7197 27.515 10.7231 27.3796 10.7001 27.2475C10.6771 27.1154 10.6282 26.9891 10.5561 26.876C10.4841 26.7629 10.3903 26.6651 10.2803 26.5884C10.1703 26.5117 10.0462 26.4576 9.91512 26.4291Z" fill="white"/>
<path d="M20.0765 52.3104C20.0105 52.4263 19.9679 52.5541 19.9513 52.6864C19.9347 52.8187 19.9442 52.9531 19.9795 53.0817C20.0148 53.2104 20.0751 53.3308 20.1569 53.4361C20.2387 53.5415 20.3405 53.6297 20.4564 53.6957C24.1288 55.7796 28.2792 56.8751 32.5017 56.8751C36.7242 56.8751 40.8745 55.7796 44.547 53.6957C44.7811 53.5624 44.9526 53.3415 45.0238 53.0817C45.0951 52.8219 45.0602 52.5445 44.9268 52.3104C44.8608 52.1945 44.7726 52.0927 44.6673 52.0109C44.5619 51.9291 44.4415 51.8688 44.3129 51.8336C44.0531 51.7623 43.7756 51.7972 43.5415 51.9305C40.1756 53.8403 36.3717 54.8443 32.5017 54.8443C28.6317 54.8443 24.8278 53.8403 21.4618 51.9305C21.3459 51.8645 21.2182 51.822 21.0858 51.8053C20.9535 51.7887 20.8192 51.7982 20.6905 51.8335C20.5619 51.8688 20.4414 51.9291 20.3361 52.0109C20.2307 52.0927 20.1425 52.1945 20.0765 52.3104Z" fill="white"/>
<path d="M52.311 44.9246C52.4269 44.9906 52.5546 45.0332 52.687 45.0498C52.8193 45.0665 52.9537 45.0569 53.0823 45.0216C53.211 44.9863 53.3314 44.9261 53.4367 44.8442C53.5421 44.7624 53.6303 44.6607 53.6963 44.5447C55.7814 40.8728 56.8772 36.7222 56.8762 32.4994C56.876 31.0791 56.7533 29.6615 56.5096 28.2622C56.4632 27.9968 56.3134 27.7606 56.0929 27.6057C55.8724 27.4507 55.5994 27.3897 55.334 27.436C55.0685 27.4824 54.8324 27.6322 54.6774 27.8527C54.5225 28.0732 54.4614 28.3462 54.5078 28.6116C55.4068 33.7364 54.4959 39.0143 51.9311 43.5413C51.7984 43.7752 51.7639 44.0522 51.8351 44.3115C51.9063 44.5708 52.0774 44.7913 52.311 44.9246Z" fill="white"/>
<path d="M20.8428 11.0881C20.7257 11.152 20.6223 11.2383 20.5386 11.3422C20.4548 11.446 20.3924 11.5653 20.3547 11.6933C20.3171 11.8213 20.305 11.9554 20.3193 12.088C20.3335 12.2207 20.3737 12.3492 20.4375 12.4663C20.5014 12.5834 20.5878 12.6868 20.6916 12.7705C20.7954 12.8543 20.9147 12.9167 21.0427 12.9544C21.1707 12.992 21.3048 13.0041 21.4375 12.9898C21.5701 12.9756 21.6986 12.9354 21.8158 12.8716C26.2707 10.4721 31.4012 9.63468 36.3879 10.493C36.5193 10.516 36.6539 10.513 36.7841 10.484C36.9144 10.4551 37.0376 10.4008 37.1468 10.3242C37.256 10.2476 37.3491 10.1503 37.4206 10.0377C37.4922 9.92519 37.541 9.79965 37.564 9.66827C37.5871 9.5369 37.5841 9.40227 37.5551 9.27206C37.5262 9.14186 37.4718 9.01864 37.3953 8.90943C37.3187 8.80022 37.2213 8.70716 37.1088 8.63557C36.9963 8.56398 36.8707 8.51525 36.7393 8.49218C31.2993 7.55431 25.7019 8.46837 20.8428 11.0881Z" fill="white"/>
<path d="M39.5589 33.8127C39.3674 33.6277 39.1108 33.5253 38.8445 33.5276C38.5782 33.5299 38.3235 33.6368 38.1352 33.8251C37.9469 34.0134 37.8401 34.2681 37.8378 34.5344C37.8354 34.8007 37.9378 35.0572 38.1228 35.2488L44.7183 41.8432L41.9761 44.5854L39.0816 40.5341C38.9495 40.3489 38.7591 40.2135 38.5409 40.1494C38.3227 40.0853 38.0893 40.0963 37.8781 40.1807L30.6976 43.0539C30.5717 43.1019 30.4567 43.1744 30.3591 43.2674C30.2616 43.3603 30.1835 43.4717 30.1294 43.595C30.0753 43.7184 30.0463 43.8513 30.0441 43.986C30.0419 44.1207 30.0665 44.2545 30.1164 44.3796C30.1664 44.5047 30.2408 44.6186 30.3352 44.7147C30.4297 44.8108 30.5423 44.8871 30.6665 44.9393C30.7907 44.9914 30.9241 45.0183 31.0588 45.0184C31.1935 45.0185 31.3269 44.9918 31.4512 44.9399L37.8923 42.3632L41.0204 46.7416C41.0526 46.7872 41.0887 46.83 41.1281 46.8696L58.3632 64.1047C58.6461 64.3877 58.9821 64.6122 59.3518 64.7653C59.7215 64.9185 60.1177 64.9973 60.5179 64.9973C60.918 64.9973 61.3143 64.9185 61.684 64.7653C62.0537 64.6122 62.3896 64.3877 62.6725 64.1047L64.1086 62.6686C64.3916 62.3857 64.6161 62.0498 64.7692 61.6801C64.9224 61.3104 65.0012 60.9141 65.0012 60.514C65.0012 60.1138 64.9224 59.7176 64.7692 59.3479C64.6161 58.9782 64.3916 58.6423 64.1086 58.3593L39.5589 33.8127ZM62.6725 61.2346L61.2364 62.6707C61.0431 62.8555 60.7859 62.9587 60.5184 62.9587C60.2509 62.9587 59.9937 62.8555 59.8003 62.6707L43.2822 46.1535L46.1544 43.2803L62.6725 59.7975C62.7669 59.8918 62.8419 60.0038 62.893 60.1271C62.9441 60.2504 62.9704 60.3825 62.9704 60.516C62.9704 60.6495 62.9441 60.7816 62.893 60.9049C62.8419 61.0282 62.7669 61.1402 62.6725 61.2346Z" fill="white"/>
<path d="M8.81079 23.172L20.8876 35.2488C21.0791 35.4338 21.3357 35.5362 21.602 35.5339C21.8683 35.5316 22.123 35.4247 22.3113 35.2364C22.4996 35.0481 22.6064 34.7934 22.6087 34.5271C22.6111 34.2608 22.5087 34.0043 22.3237 33.8127L10.2885 21.7796C10.187 21.6618 0.254152 10.303 5.97821 3.10428L29.752 26.877C29.9435 27.062 30.2001 27.1644 30.4664 27.1621C30.7326 27.1598 30.9874 27.0529 31.1757 26.8646C31.364 26.6763 31.4708 26.4216 31.4731 26.1553C31.4754 25.889 31.3731 25.6325 31.1881 25.4409L6.65665 0.913572C6.46619 0.723172 6.20791 0.616211 5.93861 0.616211C5.6693 0.616211 5.41102 0.723172 5.22056 0.913572C1.66587 4.46826 1.19056 9.48342 3.84337 15.4218C5.13213 18.2228 6.80393 20.8312 8.81079 23.172Z" fill="white"/>
<path d="M12.4868 13.5002C12.2964 13.6907 12.1895 13.949 12.1895 14.2183C12.1895 14.4876 12.2964 14.7459 12.4868 14.9363L21.6274 24.077C21.819 24.262 22.0755 24.3643 22.3418 24.362C22.6081 24.3597 22.8629 24.2529 23.0512 24.0646C23.2395 23.8763 23.3463 23.6216 23.3486 23.3553C23.3509 23.089 23.2485 22.8324 23.0635 22.6409L13.9229 13.5002C13.7325 13.3098 13.4742 13.2029 13.2049 13.2029C12.9356 13.2029 12.6773 13.3098 12.4868 13.5002Z" fill="white"/>
<path d="M24.6743 25.6877C24.4839 25.8782 24.377 26.1365 24.377 26.4058C24.377 26.6751 24.4839 26.9334 24.6743 27.1238L25.6899 28.1395C25.8815 28.3245 26.138 28.4268 26.4043 28.4245C26.6706 28.4222 26.9254 28.3154 27.1137 28.1271C27.302 27.9388 27.4088 27.6841 27.4111 27.4178C27.4134 27.1515 27.311 26.8949 27.126 26.7034L26.1104 25.6877C25.92 25.4973 25.6617 25.3904 25.3924 25.3904C25.1231 25.3904 24.8648 25.4973 24.6743 25.6877Z" fill="white"/>
<path d="M53.2201 27.583L64.7079 15.9449C64.8044 15.8472 64.8801 15.731 64.9305 15.6032C64.9808 15.4754 65.0047 15.3388 65.0007 15.2015C64.9967 15.0642 64.9649 14.9292 64.9073 14.8045C64.8496 14.6799 64.7673 14.5682 64.6652 14.4763L63.2464 13.2027C62.6643 12.6577 61.8957 12.3561 61.0984 12.3599C60.301 12.3637 59.5353 12.6725 58.9584 13.223L48.9037 23.2777C48.8066 23.3692 48.6921 23.4401 48.567 23.4864C48.4419 23.5326 48.3088 23.5532 48.1755 23.5469C47.9131 23.5498 47.6593 23.4537 47.4646 23.2777C47.2899 23.0808 47.193 22.8271 47.1918 22.5639C47.1907 22.3007 47.2855 22.0461 47.4585 21.8477L57.5853 11.8946C57.6819 11.8005 57.7587 11.688 57.8114 11.5639C57.8641 11.4397 57.8915 11.3063 57.892 11.1715V8.12459C57.892 7.85523 57.785 7.59691 57.5945 7.40644C57.4041 7.21597 57.1457 7.10897 56.8764 7.10897H53.8295C53.6946 7.10912 53.5611 7.13615 53.4368 7.18846C53.3125 7.24077 53.1998 7.31733 53.1054 7.41366L43.1594 17.5344C42.9611 17.7094 42.7058 17.8061 42.4413 17.8061C42.1768 17.8061 41.9215 17.7094 41.7233 17.5344C41.5469 17.3399 41.4507 17.0859 41.4541 16.8234C41.4483 16.6902 41.4691 16.5572 41.5153 16.4322C41.5615 16.3072 41.6322 16.1926 41.7233 16.0952L51.7779 6.04053C52.3427 5.47655 52.6629 4.71309 52.6696 3.915C52.6762 3.11691 52.3687 2.34822 51.8135 1.77491L50.5206 0.335766C50.4287 0.234343 50.3173 0.152531 50.1931 0.0952418C50.0688 0.0379525 49.9342 0.00636768 49.7974 0.00238367C49.6606 -0.00160033 49.5245 0.0220987 49.3971 0.0720578C49.2697 0.122017 49.1537 0.197206 49.0561 0.293109L37.4119 11.788C37.352 11.8479 31.6604 17.6705 34.9744 24.2801L0.892084 58.3635C0.320883 58.9349 0 59.7097 0 60.5177C0 61.3256 0.320883 62.1004 0.892084 62.6718L2.32919 64.1079C2.90057 64.6791 3.67541 65 4.48333 65C5.29126 65 6.0661 64.6791 6.63748 64.1079L40.7208 30.0245C47.3356 33.3436 53.1531 27.648 53.2201 27.583ZM5.2024 62.6708C5.01194 62.8612 4.75366 62.9681 4.48435 62.9681C4.21504 62.9681 3.95676 62.8612 3.7663 62.6708L2.33021 61.2347C2.23578 61.1404 2.16087 61.0283 2.10976 60.905C2.05865 60.7818 2.03234 60.6496 2.03234 60.5161C2.03234 60.3827 2.05865 60.2505 2.10976 60.1272C2.16087 60.0039 2.23578 59.8919 2.33021 59.7976L18.8473 43.2805L21.7205 46.1537L5.2024 62.6708ZM39.824 28.0501L23.1576 44.7176L20.2844 41.8433L36.9519 25.1769C37.1116 25.0172 37.2136 24.8087 37.2416 24.5844C37.2695 24.3602 37.2219 24.133 37.1062 23.9389C33.8136 18.4139 38.6449 13.4312 38.846 13.2281L49.7244 2.48483L50.3398 3.16936C50.4342 3.26368 50.5092 3.3757 50.5603 3.49899C50.6114 3.62229 50.6377 3.75445 50.6377 3.88791C50.6377 4.02138 50.6114 4.15354 50.5603 4.27684C50.5092 4.40013 50.4342 4.51214 50.3398 4.60647L40.2851 14.6612C39.9997 14.9505 39.7758 15.2947 39.6271 15.673C39.4783 16.0512 39.4078 16.4557 39.4198 16.862C39.4274 17.6498 39.7371 18.4045 40.2851 18.9705C40.8676 19.5235 41.6404 19.8313 42.4435 19.8302C43.2467 19.8291 44.0187 19.5191 44.5995 18.9644L54.2551 9.14022H55.8608V10.7459L46.0315 20.4055C45.479 20.9866 45.1709 21.7578 45.1709 22.5597C45.1709 23.3615 45.479 24.1327 46.0315 24.7138C46.5975 25.2617 47.3523 25.5711 48.14 25.5781C48.5465 25.5941 48.9519 25.5256 49.3306 25.3768C49.7093 25.2281 50.0529 25.0023 50.3398 24.7138L60.3945 14.6591C60.5878 14.4746 60.8448 14.3716 61.1121 14.3716C61.3793 14.3716 61.6363 14.4746 61.8296 14.6591L61.8682 14.6967L62.5141 15.2766L51.7779 26.1509C51.7272 26.2017 46.6115 31.2026 41.0621 27.8958C40.868 27.7801 40.6408 27.7325 40.4166 27.7604C40.1923 27.7884 39.9838 27.8903 39.824 28.0501Z" fill="white"/>
</svg>
