<svg width="65" height="65" viewBox="0 0 65 65" fill="none" xmlns="http://www.w3.org/2000/svg">
<g clip-path="url(#clip0_613_2622)">
<path d="M64.1867 59.2833H62.3919V55.8594C62.3919 55.4101 62.0287 55.0469 61.5794 55.0469H60.6825V21.5719H62.1677C62.6169 21.5719 62.9802 21.2086 62.9802 20.7594V16.688C62.9802 16.2387 62.6169 15.8755 62.1677 15.8755H57.6859V11.8122C57.6859 11.3629 57.3227 10.9997 56.8734 10.9997H51.3208C50.8715 10.9997 50.5083 11.3629 50.5083 11.8122V15.8755H34.9367V10.5714H36.2132C36.6625 10.5714 37.0257 10.2081 37.0257 9.75889V5.6875C37.0257 5.23824 36.6625 4.875 36.2132 4.875H14.6242V0.8125C14.6242 0.363245 14.261 0 13.8117 0H8.25909C7.80984 0 7.44659 0.363245 7.44659 0.8125V4.875H3.1167C2.66744 4.875 2.3042 5.23824 2.3042 5.6875V9.75889C2.3042 10.2081 2.66744 10.5714 3.1167 10.5714H4.31593V55.0469H3.41901C2.96975 55.0469 2.60651 55.4101 2.60651 55.8594V59.2833H0.8125C0.363245 59.2833 0 59.6465 0 60.0958V64.1875C0 64.6368 0.363245 65 0.8125 65H64.1875C64.6368 65 65 64.6368 65 64.1875V60.0958C64.9992 59.6464 64.636 59.2833 64.1867 59.2833ZM52.1341 12.6247H56.0617V15.8755H52.1341V12.6247ZM61.356 17.5005V19.9469H34.9367V17.5005H61.356ZM59.0581 21.5719V55.0469H59.0573H34.9367V21.5719H59.0581ZM9.07159 1.625H12.9992V4.875H9.07159V1.625ZM3.9292 8.94639V6.5H35.4006V8.94639H3.9292ZM28.1831 38.5938H11.1474C10.6982 38.5938 10.3349 38.957 10.3349 39.4062V55.0469H5.94093V10.5714H33.3115V55.0469H28.9956V39.4062C28.9956 38.957 28.6325 38.5938 28.1831 38.5938ZM27.3706 40.2188V55.0469H27.3698H11.9599V40.2188H27.3706ZM4.23071 56.6719H60.7669V59.2833H4.23071V56.6719ZM63.3742 63.375H1.62421V60.9083H63.3742V63.375Z" fill="white"/>
<path d="M55.1725 38.6384H50.0107C49.5615 38.6384 49.1982 39.0017 49.1982 39.4509V46.6106C49.1982 47.0599 49.5615 47.4231 50.0107 47.4231H55.1725C55.6218 47.4231 55.985 47.0599 55.985 46.6106V39.4509C55.985 39.0015 55.6218 38.6384 55.1725 38.6384ZM54.36 45.7989H50.8232V40.2642H54.36V45.7989Z" fill="white"/>
<path d="M44.2125 38.6384H39.0508C38.6015 38.6384 38.2383 39.0017 38.2383 39.4509V46.6106C38.2383 47.0599 38.6023 47.4231 39.0508 47.4231H44.2125C44.6618 47.4231 45.025 47.0599 45.025 46.6106V39.4509C45.025 39.0015 44.6618 38.6384 44.2125 38.6384ZM43.4 45.7989H39.8633V40.2642H43.4V45.7989Z" fill="white"/>
<path d="M55.1725 26.875H50.0107C49.5615 26.875 49.1982 27.2382 49.1982 27.6875V34.8472C49.1982 35.2956 49.5615 35.6597 50.0107 35.6597H55.1725C55.6218 35.6597 55.985 35.2964 55.985 34.8472V27.6875C55.985 27.2382 55.6218 26.875 55.1725 26.875ZM54.36 34.0348H50.8232V28.5002H54.36V34.0348Z" fill="white"/>
<path d="M44.2125 26.875H39.0508C38.6015 26.875 38.2383 27.2382 38.2383 27.6875V34.8472C38.2383 35.2956 38.6023 35.6597 39.0508 35.6597H44.2125C44.6618 35.6597 45.025 35.2964 45.025 34.8472V27.6875C45.025 27.2382 44.6618 26.875 44.2125 26.875ZM43.4 34.0348H39.8633V28.5002H43.4V34.0348Z" fill="white"/>
<path d="M28.1832 26.8442H23.0215C22.5722 26.8442 22.209 27.2075 22.209 27.6567V34.8164C22.209 35.2649 22.5722 35.6289 23.0215 35.6289H28.1832C28.6325 35.6289 28.9957 35.2657 28.9957 34.8164V27.6567C28.9957 27.2073 28.6327 26.8442 28.1832 26.8442ZM27.3707 34.0039H23.834V28.4692H27.3707V34.0039Z" fill="white"/>
<path d="M28.1832 15.0801H23.0215C22.5722 15.0801 22.209 15.4433 22.209 15.8926V23.0523C22.209 23.5015 22.5722 23.8648 23.0215 23.8648H28.1832C28.6325 23.8648 28.9957 23.5015 28.9957 23.0523V15.8926C28.9957 15.4433 28.6327 15.0801 28.1832 15.0801ZM27.3707 22.2407H23.834V16.706H27.3707V22.2407Z" fill="white"/>
<path d="M16.3094 26.8442H11.1475C10.6982 26.8442 10.335 27.2075 10.335 27.6567V34.8164C10.335 35.2649 10.6982 35.6289 11.1475 35.6289H16.3092C16.7585 35.6289 17.1217 35.2657 17.1217 34.8164V27.6567C17.1219 27.2073 16.7586 26.8442 16.3094 26.8442ZM15.4969 34.0039H11.96V28.4692H15.4967L15.4969 34.0039Z" fill="white"/>
<path d="M16.3094 15.0801H11.1475C10.6982 15.0801 10.335 15.4433 10.335 15.8926V23.0523C10.335 23.5015 10.6982 23.8648 11.1475 23.8648H16.3092C16.7585 23.8648 17.1217 23.5015 17.1217 23.0523V15.8926C17.1219 15.4433 16.7586 15.0801 16.3094 15.0801ZM15.4969 22.2407H11.96V16.706H15.4967L15.4969 22.2407Z" fill="white"/>
</g>
<defs>
<clipPath id="clip0_613_2622">
<rect width="65" height="65" fill="white"/>
</clipPath>
</defs>
</svg>
