<svg width="50" height="50" viewBox="0 0 50 50" fill="none" xmlns="http://www.w3.org/2000/svg">
<g clip-path="url(#clip0_756_2753)">
<path d="M39.2581 -0.0488405C39.3346 -0.0506895 39.411 -0.0525384 39.4898 -0.0544434C40.7201 -0.040928 41.8435 0.469428 42.9386 0.982654C44.4435 1.70752 44.4435 1.70752 46.0758 1.80663C46.6085 1.73927 46.9123 1.74358 47.3636 2.05077C47.7477 2.50635 47.8975 3.00651 48.0533 3.57054C48.0908 3.70622 48.0908 3.70622 48.1291 3.84463C49.1996 7.87062 48.7364 12.0918 46.6715 15.7136C45.4239 17.7898 43.6168 19.4847 41.6019 20.8008C41.6174 20.8545 41.6329 20.9083 41.6488 20.9637C41.9239 21.9438 42.1643 22.9317 42.3831 23.9258C42.3998 23.9988 42.4165 24.0717 42.4337 24.1469C43.1295 27.3045 42.7304 30.7431 41.8716 33.8158C41.7907 34.1054 41.7114 34.3954 41.6324 34.6855C41.6079 34.7756 41.5833 34.8657 41.558 34.9586C41.5403 35.0238 41.5225 35.089 41.5042 35.1562C41.5505 35.201 41.5968 35.2458 41.6446 35.2919C41.8549 35.4962 42.0641 35.7015 42.2733 35.907C42.3462 35.9774 42.419 36.0478 42.4941 36.1204C42.564 36.1893 42.6339 36.2582 42.7059 36.3293C42.7703 36.3922 42.8347 36.4551 42.9011 36.5199C43.2259 36.9099 43.2841 37.2763 43.2975 37.7773C43.2081 38.3088 42.8936 38.687 42.5253 39.0605C42.4357 39.152 42.346 39.2436 42.2536 39.3379C42.156 39.436 42.0582 39.534 41.9605 39.632C41.8596 39.7338 41.7587 39.8357 41.6579 39.9375C41.447 40.1502 41.2354 40.3623 41.0235 40.574C40.7527 40.8449 40.4838 41.1177 40.2155 41.3911C40.0081 41.6018 39.7993 41.8111 39.5902 42.0201C39.4905 42.1201 39.3913 42.2206 39.2926 42.3216C39.1543 42.4628 39.0139 42.6019 38.8735 42.7409C38.7944 42.8205 38.7152 42.9 38.6337 42.982C38.3157 43.2095 38.0835 43.247 37.6956 43.2617C37.3848 43.086 37.2443 42.9673 37.1158 42.633C37.1061 42.2369 37.2349 41.9782 37.4879 41.6764C37.5621 41.6029 37.6362 41.5294 37.7127 41.4536C37.7967 41.3696 37.8808 41.2855 37.9674 41.199C38.1036 41.065 38.1036 41.065 38.2427 40.9283C38.3366 40.8349 38.4305 40.7414 38.5243 40.6479C38.7705 40.4027 39.0177 40.1585 39.265 39.9144C39.5176 39.6648 39.7693 39.4145 40.0211 39.1642C40.5146 38.6737 41.0091 38.1842 41.5042 37.6953C41.3698 37.3934 41.216 37.1878 40.9819 36.9555C40.9155 36.8891 40.849 36.8226 40.7806 36.7542C40.7089 36.6836 40.6373 36.613 40.5635 36.5402C40.4901 36.4671 40.4167 36.3939 40.341 36.3186C40.1067 36.0853 39.8716 35.8527 39.6366 35.6201C39.4774 35.462 39.3184 35.3038 39.1593 35.1456C38.7696 34.758 38.3793 34.371 37.9886 33.9844C37.3933 34.477 36.849 35.0131 36.3041 35.5602C36.2049 35.6594 36.1057 35.7586 36.0065 35.8577C35.7389 36.1252 35.4717 36.393 35.2046 36.6608C34.9247 36.9414 34.6445 37.2216 34.3643 37.5019C33.8346 38.0319 33.3052 38.5621 32.7759 39.0924C32.1729 39.6965 31.5696 40.3003 30.9663 40.9041C29.726 42.1454 28.4861 43.387 27.2464 44.6289C27.3895 44.9278 27.5327 45.1344 27.7687 45.3687C27.8352 45.4351 27.9016 45.5016 27.9701 45.57C28.0417 45.6406 28.1133 45.7112 28.1871 45.784C28.2605 45.8571 28.334 45.9303 28.4096 46.0056C28.644 46.2389 28.879 46.4715 29.1141 46.7041C29.2732 46.8622 29.4323 47.0204 29.5913 47.1786C29.981 47.5662 30.3713 47.9532 30.762 48.3398C31.3018 47.892 31.7933 47.4121 32.2822 46.9097C32.4419 46.7473 32.6017 46.585 32.7615 46.4228C33.0111 46.1689 33.2603 45.9148 33.5085 45.6596C33.7497 45.4119 33.9923 45.1658 34.2353 44.92C34.3461 44.8049 34.3461 44.8049 34.4592 44.6875C34.9773 44.1668 34.9773 44.1668 35.3866 44.0354C35.7161 44.045 35.8747 44.1349 36.1331 44.3359C36.3284 44.6289 36.3284 44.6289 36.3179 44.9586C36.2189 45.3607 36.105 45.5106 35.8135 45.7994C35.7249 45.8886 35.6362 45.9779 35.5448 46.0698C35.4474 46.165 35.3499 46.26 35.2523 46.355C35.1526 46.4542 35.0529 46.5535 34.9534 46.6529C34.745 46.8603 34.5357 47.0668 34.3256 47.2726C34.0566 47.536 33.7894 47.8011 33.5228 48.0669C33.3172 48.2717 33.111 48.4759 32.9047 48.6799C32.806 48.7775 32.7074 48.8752 32.6089 48.973C32.471 49.1095 32.3324 49.2453 32.1938 49.381C32.0758 49.4969 32.0758 49.4969 31.9555 49.6153C31.5863 49.9377 31.3108 50.0298 30.8231 50.0366C30.7337 50.0394 30.6443 50.0422 30.5522 50.045C29.6651 49.9016 29.0379 48.9476 28.469 48.3229C28.0616 47.8621 28.0616 47.8621 27.5225 47.6142C27.2916 47.6347 27.2916 47.6347 26.9534 47.7539C26.8429 47.7759 26.7324 47.798 26.6185 47.8207C26.5075 47.845 26.3965 47.8692 26.2821 47.8943C23.4448 48.4733 20.3274 48.4902 17.5285 47.7005C17.2402 47.648 17.078 47.6686 16.7972 47.7539C16.561 47.9395 16.561 47.9395 16.3394 48.1804C16.2551 48.2669 16.1707 48.3533 16.0838 48.4425C15.9536 48.579 15.9536 48.579 15.8206 48.7183C15.6482 48.8975 15.4752 49.0763 15.3018 49.2546C15.2257 49.3343 15.1495 49.4139 15.071 49.496C14.6773 49.862 14.3655 50.042 13.8248 50.0427C13.7363 50.0446 13.6478 50.0465 13.5566 50.0484C12.9953 49.9496 12.5954 49.5336 12.2038 49.1424C12.158 49.0969 12.1122 49.0513 12.065 49.0044C11.9129 48.8532 11.7616 48.7012 11.6103 48.5493C11.5008 48.4401 11.3914 48.331 11.2819 48.2219C10.9857 47.9266 10.6901 47.6307 10.3946 47.3346C10.0851 47.0245 9.77504 46.715 9.46509 46.4053C8.94494 45.8855 8.42521 45.3653 7.90571 44.8449C7.30508 44.2432 6.70375 43.6422 6.10205 43.0416C5.58516 42.5256 5.06865 42.0092 4.55246 41.4925C4.24428 41.184 3.93597 40.8757 3.62731 40.5677C3.33735 40.2783 3.04786 39.9884 2.75874 39.6981C2.65254 39.5917 2.54617 39.4854 2.43962 39.3793C2.2943 39.2345 2.14958 39.0891 2.00501 38.9435C1.92385 38.8623 1.8427 38.7811 1.75908 38.6974C1.46202 38.3631 1.33934 38.105 1.33699 37.6587C1.33535 37.5874 1.33372 37.5162 1.33203 37.4428C1.43762 36.7411 1.92461 36.3209 2.41121 35.852C2.47975 35.7848 2.5483 35.7176 2.61892 35.6483C2.78707 35.4836 2.95587 35.3196 3.12532 35.1562C3.10785 35.0919 3.09037 35.0275 3.07237 34.9612C3.02448 34.7847 2.97666 34.6083 2.92886 34.4318C2.85903 34.1787 2.78763 33.9264 2.71448 33.6742C1.21412 28.4727 1.74144 22.9439 4.2972 18.1641C4.3444 18.0753 4.3444 18.0753 4.39256 17.9848C5.54392 15.8412 7.16787 13.7215 9.08235 12.207C9.174 12.1335 9.26564 12.06 9.36006 11.9842C13.7833 8.48103 19.2539 6.89344 24.8721 7.53173C26.5579 7.74486 28.2032 8.17271 29.7855 8.78905C29.7888 8.71553 29.7922 8.64202 29.7957 8.56627C29.8784 6.87519 30.0463 5.25748 30.4691 3.61327C30.4952 3.51144 30.4952 3.51144 30.5218 3.40756C30.6813 2.81003 30.8307 2.3316 31.348 1.95311C31.7519 1.74626 32.02 1.75814 32.4649 1.81884C33.6958 1.91792 34.6538 1.43653 35.7425 0.927722C36.9245 0.376625 37.9381 -0.0246577 39.2581 -0.0488405ZM35.8341 2.60009C34.6717 3.13764 33.5281 3.5172 32.2269 3.41796C31.0356 6.61076 31.1293 10.3802 32.5019 13.5044C33.1683 14.9321 34.0591 16.1623 35.1566 17.2851C35.2336 17.3682 35.3107 17.4513 35.39 17.5369C36.2671 18.4605 37.3111 19.1733 38.3853 19.8486C38.4446 19.8872 38.5038 19.9258 38.5649 19.9656C38.8378 20.1313 39.0307 20.2147 39.352 20.216C39.7358 20.0882 40.0491 19.9034 40.3873 19.6838C40.4555 19.6403 40.5236 19.5967 40.5939 19.5519C41.8994 18.7057 43.1691 17.7272 44.1409 16.5039C44.1803 16.4543 44.2197 16.4048 44.2603 16.3537C46.5368 13.4567 47.4376 9.96822 47.0188 6.30225C46.8869 5.35486 46.657 4.43237 46.387 3.51561C46.029 3.43431 45.6914 3.40659 45.325 3.39354C44.0534 3.2955 42.9277 2.74484 41.7913 2.20376C39.5513 1.14817 37.969 1.61153 35.8341 2.60009ZM9.69499 13.8588C9.4887 14.0481 9.27767 14.2295 9.06404 14.4104C8.67268 14.7534 8.33748 15.1249 8.00813 15.5273C7.96846 15.5756 7.92879 15.6238 7.88792 15.6735C4.56957 19.7295 3.01489 24.7301 3.5354 29.9564C3.68809 31.2616 4.00435 32.5364 4.39485 33.7891C4.76216 33.6194 4.97406 33.4101 5.24934 33.1116C5.97349 32.38 5.97349 32.38 6.54329 32.3242C7.03814 32.3455 7.4645 32.4184 7.82503 32.7759C7.88545 32.8524 7.94588 32.9289 8.00813 33.0078C8.32636 32.8685 8.53572 32.6985 8.7787 32.4516C8.84794 32.3818 8.91718 32.3119 8.98851 32.2399C9.05976 32.167 9.13101 32.0941 9.20442 32.019C9.27718 31.9454 9.34995 31.8717 9.42491 31.7959C9.60414 31.6143 9.7829 31.4324 9.96126 31.25C9.81938 30.9199 9.64026 30.7163 9.37952 30.471C9.30304 30.3974 9.22657 30.3237 9.14777 30.2479C8.9879 30.0957 8.82744 29.9441 8.66636 29.7932C7.96217 29.1115 7.46635 28.3965 7.41609 27.393C7.43667 26.5687 7.64517 25.9129 8.20345 25.293C8.64701 24.9224 9.10478 24.6562 9.66829 24.5117C9.65293 24.4616 9.63757 24.4115 9.62175 24.3599C9.43947 23.5084 9.47441 22.6326 9.92006 21.8765C10.107 21.6116 10.2973 21.3986 10.5472 21.1914C10.668 21.0887 10.668 21.0887 10.7913 20.9839C11.2999 20.7114 11.8396 20.6181 12.4027 20.5078C12.417 20.4264 12.4314 20.3449 12.4462 20.261C12.6384 19.2966 12.893 18.5847 13.7332 18.0237C14.2724 17.727 14.8232 17.6386 15.43 17.5781C15.4373 17.5048 15.4446 17.4316 15.4521 17.3561C15.5597 16.5185 15.7686 15.8176 16.4211 15.2458C17.1152 14.7554 17.7297 14.6195 18.5703 14.6702C18.8609 14.6647 18.8609 14.6647 19.1421 14.503C19.6098 14.2971 20.0677 14.3134 20.5715 14.3165C20.6703 14.3163 20.7691 14.316 20.8709 14.3157C21.0792 14.3155 21.2875 14.316 21.4959 14.3173C21.8126 14.3188 22.1292 14.3173 22.446 14.3154C22.6492 14.3156 22.8524 14.316 23.0556 14.3165C23.1493 14.316 23.243 14.3154 23.3396 14.3148C24.2006 14.3236 24.8935 14.5112 25.5863 15.0391C25.6366 15.0975 25.687 15.1559 25.7388 15.2161C25.7852 15.2543 25.8315 15.2926 25.8792 15.332C26.1599 15.304 26.3927 15.226 26.6605 15.1367C27.6829 15.0736 28.4897 15.0803 29.3155 15.7287C29.9821 16.352 30.2305 17.0746 30.2738 17.9687C30.3563 17.9842 30.4389 17.9997 30.524 18.0157C31.4058 18.197 32.1398 18.4182 32.706 19.1604C33.0521 19.729 33.2437 20.3363 33.3011 20.9961C33.3696 21.0056 33.4381 21.0152 33.5086 21.0251C34.4574 21.1746 35.0813 21.4029 35.6967 22.1611C36.0774 22.6977 36.2062 23.2917 36.3284 23.9258C36.404 23.9413 36.4795 23.9567 36.5573 23.9727C37.3997 24.1614 38.1242 24.4035 38.6627 25.119C39.1565 25.9203 39.2977 26.695 39.1029 27.6161C38.7249 28.853 37.5603 29.7384 36.6641 30.6274C36.5552 30.7359 36.4463 30.8443 36.3374 30.9528C36.0743 31.2149 35.8108 31.4767 35.5472 31.7383C35.704 32.0713 35.8797 32.2869 36.1453 32.5439C36.2161 32.6129 36.2868 32.6819 36.3597 32.753C36.4139 32.8048 36.468 32.8567 36.5238 32.9101C36.7377 32.8081 36.9075 32.721 37.0853 32.5622C37.5301 32.278 37.954 32.3 38.4525 32.3913C38.9425 32.5944 39.289 33.0068 39.6452 33.3871C39.7736 33.524 39.9062 33.6569 40.0394 33.7891C40.1038 33.7891 40.1683 33.7891 40.2347 33.7891C41.2609 30.1303 41.9242 25.2541 40.137 21.6797C40.0806 21.6949 40.0242 21.7101 39.9661 21.7258C39.0041 21.9513 38.3369 21.5845 37.5223 21.0851C34.0558 18.9117 31.3267 15.8443 30.3883 11.7797C30.3576 11.6374 30.3284 11.4947 30.3009 11.3516C30.2283 10.9864 30.1702 10.7847 29.8831 10.5469C29.5887 10.3954 29.2773 10.2849 28.9676 10.1684C28.8763 10.1341 28.7851 10.0998 28.691 10.0644C22.2162 7.70073 14.7529 9.19371 9.69499 13.8588ZM19.5316 16.0156C19.4464 16.6206 19.5208 17.1416 19.8245 17.6758C20.2817 18.2195 20.8116 18.4932 21.5111 18.582C22.2733 18.6332 22.721 18.5345 23.31 18.021C23.8053 17.5417 24.2655 17.0326 24.7074 16.5039C24.6131 16.2555 24.5192 16.1194 24.317 15.9446C23.8916 15.7643 23.5004 15.7803 23.043 15.7848C22.9488 15.7848 22.8546 15.7847 22.7575 15.7847C22.5589 15.7849 22.3604 15.7859 22.1618 15.7875C21.8571 15.7898 21.5524 15.7895 21.2476 15.7888C21.0547 15.7894 20.8617 15.7901 20.6687 15.7909C20.5316 15.7908 20.5316 15.7908 20.3916 15.7907C20.3072 15.7916 20.2227 15.7925 20.1357 15.7935C20.0613 15.7939 19.9869 15.7944 19.9102 15.7948C19.7031 15.8048 19.7031 15.8048 19.5316 16.0156ZM17.4259 16.4917C17.3653 16.5438 17.3048 16.5959 17.2424 16.6496C16.9952 16.8887 16.9728 17.074 16.962 17.4072C16.9583 17.4802 16.9547 17.5532 16.9509 17.6285C17.045 18.1776 17.4865 18.5852 17.8664 18.9671C17.9131 19.0144 17.9599 19.0616 18.008 19.1103C18.1611 19.2647 18.3149 19.4184 18.4688 19.5721C18.5763 19.68 18.6838 19.7879 18.7913 19.8959C19.0161 20.1213 19.2412 20.3464 19.4666 20.5713C19.7546 20.8588 20.0415 21.1473 20.3281 21.4362C20.5496 21.6592 20.7718 21.8814 20.9942 22.1035C21.1003 22.2096 21.2061 22.3159 21.3117 22.4225C21.4595 22.5716 21.6083 22.7197 21.7574 22.8676C21.8417 22.952 21.9259 23.0363 22.0127 23.1232C22.384 23.4408 22.7066 23.6172 23.1937 23.6694C23.5825 23.6278 23.799 23.5619 24.1214 23.3398C24.415 22.9634 24.5469 22.7025 24.5303 22.2229C24.4532 21.775 24.255 21.5188 23.936 21.2036C23.7308 20.9961 23.7308 20.9961 23.5439 20.7336C23.2518 20.3598 22.9998 20.067 22.5159 19.9734C22.1446 19.9406 21.7787 19.9315 21.4061 19.9412C20.4977 19.961 19.7387 19.6953 19.0257 19.1238C18.2073 18.3018 18.055 17.3145 17.9691 16.2109C17.7019 16.2109 17.6248 16.3181 17.4259 16.4917ZM26.5983 16.8835C26.4974 16.9763 26.4974 16.9763 26.3945 17.071C25.9731 17.4768 25.5585 17.8888 25.1468 18.3044C25.0572 18.3945 24.9675 18.4846 24.8752 18.5774C24.6563 18.7974 24.4376 19.0178 24.2191 19.2383C24.5187 19.5948 24.8144 19.9432 25.159 20.2576C25.7271 20.8155 25.9853 21.4823 26.0074 22.2717C26.0007 22.9851 25.7821 23.5868 25.4276 24.2004C24.8847 24.7004 24.2553 25.0388 23.5355 25.1953C23.54 25.2756 23.5445 25.3559 23.5492 25.4387C23.5816 26.439 23.4212 27.2319 22.7264 27.9816C22.1483 28.4767 21.5023 28.6298 20.7584 28.6255C20.6296 28.6257 20.5008 28.626 20.3681 28.6262C20.0977 28.6162 19.884 28.5977 19.6292 28.5156C19.5949 28.5934 19.5605 28.6712 19.5251 28.7514C19.0815 29.7034 18.6486 30.2326 17.6513 30.5969C16.8997 30.7851 16.161 30.6937 15.43 30.4687C15.3785 30.5749 15.3785 30.5749 15.3259 30.6831C14.9406 31.4376 14.5742 31.9763 13.776 32.3059C12.8885 32.5915 12.11 32.5196 11.2308 32.2266C10.264 33.1933 10.264 33.1933 9.27766 34.1797C9.72239 34.7047 9.72239 34.7047 10.1899 35.2013C10.2474 35.2589 10.3049 35.3166 10.3641 35.3759C10.425 35.4365 10.4859 35.497 10.5487 35.5594C10.6474 35.6582 10.6474 35.6582 10.7481 35.7589C10.9634 35.9742 11.1791 36.1891 11.3948 36.404C11.5451 36.5541 11.6953 36.7042 11.8455 36.8543C12.2393 37.2477 12.6333 37.6408 13.0274 38.0338C13.4302 38.4356 13.8327 38.8377 14.2352 39.2397C15.0239 40.0272 15.8128 40.8145 16.6019 41.6016C16.9274 41.4603 17.1361 41.2841 17.3827 41.0305C17.4584 40.9532 17.5341 40.8759 17.6122 40.7962C17.6934 40.7124 17.7747 40.6286 17.8584 40.5422C18.0334 40.3643 18.2083 40.1865 18.3833 40.0087C18.6576 39.7293 18.9312 39.4493 19.2041 39.1686C21.6225 36.6845 21.6225 36.6845 23.1449 36.2305C23.2617 36.1942 23.3785 36.1579 23.4989 36.1206C24.0782 35.9704 24.6308 35.9227 25.2277 35.9169C25.386 35.9142 25.5443 35.9114 25.7026 35.9085C25.9492 35.9045 26.1958 35.9009 26.4424 35.8983C27.9263 35.883 27.9263 35.883 29.3094 35.3821C29.697 35.2051 29.9471 35.2122 30.3714 35.2539C30.5667 35.3577 30.5667 35.3577 30.6644 35.5469C30.7071 35.8826 30.7071 35.8826 30.6644 36.2305C30.3929 36.5647 30.1138 36.7172 29.7183 36.8774C29.6233 36.917 29.5283 36.9565 29.4303 36.9972C28.7396 37.2331 28.0809 37.3332 27.3528 37.3382C27.2339 37.3404 27.2339 37.3404 27.1126 37.3426C26.7778 37.3486 26.443 37.3525 26.1082 37.3566C25.8618 37.3599 25.6155 37.3643 25.3692 37.3688C25.2948 37.3693 25.2204 37.3698 25.1438 37.3703C24.6452 37.3795 24.2109 37.4615 23.7308 37.5976C24.17 38.1242 24.6352 38.6127 25.1216 39.0957C25.1967 39.1706 25.2717 39.2455 25.349 39.3226C25.5866 39.5596 25.8244 39.7963 26.0623 40.033C26.2244 40.1945 26.3864 40.356 26.5483 40.5176C26.9435 40.9117 27.339 41.3056 27.7347 41.6992C28.0239 41.569 28.2269 41.4266 28.4503 41.2024C28.5125 41.1405 28.5747 41.0786 28.6387 41.0148C28.7058 40.947 28.7729 40.8792 28.842 40.8094C28.9135 40.7379 28.985 40.6665 29.0587 40.5928C29.2948 40.3566 29.5302 40.1196 29.7656 39.8827C29.9293 39.7187 30.0929 39.5547 30.2566 39.3909C30.6873 38.9594 31.1174 38.5274 31.5474 38.0953C31.9863 37.6544 32.4257 37.214 32.8651 36.7737C33.7271 35.9095 34.5885 35.0448 35.4495 34.1797C35.2928 33.8466 35.117 33.6311 34.8514 33.374C34.7806 33.305 34.7099 33.236 34.637 33.165C34.5829 33.1131 34.5287 33.0612 34.473 33.0078C34.0947 33.1617 33.8629 33.406 33.5819 33.6975C33.0295 34.2687 33.0295 34.2687 32.5748 34.3017C32.2269 34.2773 32.2269 34.2773 32.0377 34.1797C31.8707 33.8653 31.8765 33.5465 31.9339 33.2031C32.0959 32.9687 32.228 32.8119 32.4313 32.6217C32.4841 32.5692 32.537 32.5167 32.5915 32.4626C32.7659 32.2902 32.9428 32.1208 33.1199 31.9511C33.242 31.8312 33.3639 31.7111 33.4856 31.5909C33.8061 31.275 34.1287 30.9615 34.4519 30.6485C34.9688 30.1475 35.4825 29.6433 35.9957 29.1387C36.175 28.9631 36.3552 28.7888 36.5357 28.6145C36.6463 28.5065 36.7568 28.3985 36.8674 28.2905C36.9425 28.2188 36.9425 28.2188 37.0192 28.1456C37.3753 27.795 37.6657 27.4289 37.72 26.9195C37.655 26.3587 37.526 26.0715 37.1097 25.6836C36.7522 25.4614 36.4477 25.468 36.034 25.5318C35.733 25.6159 35.5067 25.797 35.2542 25.9766C34.9363 26.0929 34.817 26.0928 34.4974 25.9766C34.2777 25.7812 34.2777 25.7812 34.1678 25.47C34.1823 25.0292 34.3054 24.8495 34.5489 24.4961C34.786 24.1393 34.7779 23.9022 34.711 23.4863C34.5186 23.0179 34.247 22.7874 33.7894 22.5586C33.179 22.4954 32.9092 22.593 32.4108 22.937C32.1406 23.0984 31.9468 23.1025 31.6409 23.0469C31.409 22.9492 31.409 22.9492 31.2503 22.7539C31.2115 22.4528 31.1914 22.2614 31.2503 21.9726C31.38 21.8095 31.5103 21.6467 31.6409 21.4844C31.7637 21.0515 31.7736 20.7086 31.6287 20.282C31.3384 19.8657 31.0771 19.6278 30.5728 19.5373C30.051 19.494 29.7191 19.7383 29.2972 20.0195C29.0314 20.0656 28.782 20.0632 28.5159 20.0195C28.3145 19.8669 28.3145 19.8669 28.223 19.6289C28.2306 19.2189 28.2818 18.9994 28.522 18.6645C28.7731 18.2596 28.7938 17.9456 28.7113 17.4805C28.4973 17.0525 28.2799 16.7806 27.8324 16.6016C27.3312 16.4979 26.9805 16.5303 26.5983 16.8835ZM14.3558 19.4336C14.0952 19.7958 13.9281 20.1531 13.9469 20.6055C14.1543 21.5407 15.2709 22.3178 15.9316 22.979C16.0458 23.0934 16.1599 23.2079 16.274 23.3223C16.5118 23.5607 16.7498 23.7988 16.9879 24.0369C17.2928 24.3418 17.597 24.6473 17.901 24.953C18.1358 25.1889 18.3711 25.4244 18.6065 25.6598C18.7189 25.7723 18.8312 25.885 18.9433 25.9978C19.0996 26.1551 19.2565 26.3117 19.4136 26.4682C19.5026 26.5574 19.5916 26.6465 19.6833 26.7384C20.1037 27.1163 20.4183 27.1935 20.972 27.1789C21.3225 27.1303 21.5183 26.9925 21.7777 26.7578C22.0205 26.421 22.0962 26.1529 22.0828 25.7446C21.912 24.7691 20.7834 23.9898 20.1042 23.3101C19.99 23.1956 19.8759 23.0812 19.7618 22.9667C19.524 22.7284 19.286 22.4902 19.0479 22.2522C18.743 21.9473 18.4388 21.6417 18.1348 21.336C17.9 21.1001 17.6647 20.8646 17.4293 20.6293C17.3169 20.5168 17.2046 20.4041 17.0925 20.2912C16.9362 20.134 16.7793 19.9773 16.6222 19.8208C16.5332 19.7317 16.4442 19.6425 16.3525 19.5506C15.927 19.1681 15.6162 19.0999 15.0569 19.1173C14.7441 19.1515 14.5892 19.2202 14.3558 19.4336ZM11.1331 22.6745C10.9962 23.0598 10.9515 23.4256 11.0355 23.8281C11.2818 24.2304 11.552 24.5649 11.884 24.8988C11.9743 24.99 12.0646 25.0812 12.1576 25.1752C12.2554 25.273 12.3533 25.3707 12.4511 25.4684C12.5523 25.57 12.6535 25.6716 12.7546 25.7732C12.966 25.9853 13.1778 26.197 13.3897 26.4085C13.6609 26.6791 13.931 26.9509 14.2008 27.2229C14.4091 27.4327 14.6181 27.6418 14.8274 27.8507C14.9272 27.9506 15.0268 28.0508 15.1262 28.1511C15.2652 28.2914 15.4053 28.4305 15.5454 28.5697C15.6247 28.649 15.7039 28.7284 15.7856 28.8101C16.08 29.0578 16.341 29.1908 16.727 29.2107C17.2165 29.1572 17.52 29.0837 17.8714 28.7109C18.0369 28.4321 18.0977 28.2167 18.1033 27.8931C18.1061 27.8218 18.1089 27.7506 18.1117 27.6771C18.01 27.1444 17.5892 26.7438 17.2182 26.3707C17.1279 26.2795 17.0376 26.1883 16.9446 26.0943C16.8468 25.9965 16.749 25.8988 16.6511 25.8011C16.5499 25.6995 16.4487 25.5979 16.3476 25.4963C16.1362 25.2842 15.9245 25.0725 15.7125 24.861C15.4413 24.5904 15.1712 24.3187 14.9014 24.0466C14.6931 23.8368 14.4841 23.6277 14.2749 23.4188C14.175 23.3189 14.0754 23.2188 13.976 23.1184C13.837 22.9782 13.6969 22.839 13.5568 22.6998C13.4379 22.5808 13.4379 22.5808 13.3166 22.4594C13.0208 22.2105 12.7517 22.0952 12.3721 22.0337C11.8816 22.1021 11.4676 22.3088 11.1331 22.6745ZM9.14949 26.5503C8.92384 26.9682 8.85825 27.1892 8.94574 27.6587C9.08091 28.1078 9.366 28.3831 9.69347 28.7067C9.7542 28.7682 9.81493 28.8296 9.8775 28.8929C10.0058 29.0219 10.1347 29.1503 10.2641 29.2781C10.461 29.4731 10.6548 29.6708 10.8486 29.8689C10.974 29.9944 11.0996 30.1197 11.2254 30.2448C11.2828 30.3036 11.3401 30.3624 11.3991 30.423C11.8106 30.8233 12.127 30.9644 12.6956 31.0547C13.1063 31.0057 13.4064 30.8231 13.7149 30.5542C13.9192 30.1784 14.0192 29.8227 13.9652 29.3945C13.7098 28.8924 13.4219 28.5146 13.0229 28.1204C12.9707 28.0679 12.9184 28.0154 12.8646 27.9612C12.7548 27.8513 12.6447 27.7416 12.5342 27.6324C12.3661 27.4659 12.1997 27.2979 12.0334 27.1297C11.9259 27.0224 11.8183 26.9153 11.7107 26.8082C11.6615 26.7584 11.6124 26.7087 11.5617 26.6574C11.1737 26.2769 10.8007 26.0082 10.2542 25.9399C9.75254 26.0026 9.46707 26.1555 9.14949 26.5503ZM6.49203 34.0239C6.39607 34.1202 6.39607 34.1202 6.29817 34.2184C6.22584 34.2907 6.15351 34.3631 6.07898 34.4376C6.00045 34.5166 5.92192 34.5957 5.841 34.6771C5.76094 34.7573 5.68088 34.8375 5.59839 34.9201C5.34143 35.1777 5.08481 35.4355 4.8282 35.6933C4.65459 35.8675 4.48096 36.0415 4.3073 36.2156C3.8805 36.6435 3.45398 37.0716 3.02766 37.5C3.17585 37.8485 3.3799 38.0716 3.64686 38.338C3.73588 38.4273 3.82489 38.5166 3.9166 38.6085C4.01549 38.7067 4.1144 38.8049 4.21332 38.9031C4.3173 39.0071 4.42124 39.111 4.52513 39.215C4.80715 39.4971 5.08977 39.7786 5.3725 40.0599C5.66793 40.3541 5.9628 40.6489 6.25773 40.9436C6.81624 41.5015 7.37525 42.0589 7.93444 42.6161C8.57106 43.2506 9.20712 43.8856 9.84314 44.5206C11.1514 45.8269 12.4604 47.1324 13.7699 48.4375C14.3027 47.9869 14.3027 47.9869 14.809 47.5071C14.8695 47.4466 14.9301 47.386 14.9925 47.3236C15.0552 47.2604 15.1178 47.1972 15.1824 47.1321C15.2487 47.0657 15.3149 46.9994 15.3831 46.931C15.5923 46.7213 15.8011 46.5113 16.0098 46.3013C16.1526 46.1581 16.2953 46.0149 16.438 45.8717C16.7859 45.5228 17.1334 45.1736 17.4808 44.8242C17.3326 44.476 17.1288 44.2526 16.8622 43.9862C16.7734 43.8969 16.6845 43.8077 16.5929 43.7157C16.4942 43.6175 16.3954 43.5193 16.2967 43.4211C16.1929 43.3171 16.0891 43.2132 15.9853 43.1092C15.7037 42.8271 15.4215 42.5456 15.1392 42.2643C14.8441 41.97 14.5495 41.6753 14.2549 41.3806C13.7602 40.8861 13.2652 40.3919 12.77 39.898C12.1966 39.3262 11.6238 38.7538 11.0512 38.1812C10.5011 37.631 9.9506 37.081 9.39999 36.5312C9.16532 36.2969 8.93072 36.0625 8.69619 35.828C8.42045 35.5524 8.14446 35.277 7.86828 35.0018C7.76666 34.9004 7.66513 34.799 7.56368 34.6975C7.42582 34.5596 7.28764 34.422 7.14943 34.2845C7.072 34.2072 6.99457 34.1299 6.91479 34.0503C6.70131 33.836 6.70131 33.836 6.49203 34.0239ZM21.876 38.636C21.802 38.7106 21.7281 38.7852 21.6519 38.862C21.5678 38.9461 21.4838 39.0302 21.3972 39.1168C21.3069 39.2086 21.2165 39.3005 21.1234 39.3951C21.0298 39.4893 20.936 39.5835 20.8423 39.6776C20.5955 39.9255 20.3496 40.1742 20.1039 40.4232C19.8531 40.677 19.6014 40.93 19.3498 41.1831C18.8562 41.6798 18.3635 42.1775 17.8714 42.6758C18.0659 43.0892 18.3315 43.3345 18.6649 43.6428C18.9996 44.0173 19.0928 44.4095 19.0814 44.91C18.9836 45.4412 18.5794 45.8684 18.262 46.2891C18.5346 46.3363 18.8072 46.383 19.0799 46.4294C19.1934 46.4492 19.1934 46.4492 19.3092 46.4693C21.6163 46.8602 23.9832 46.7737 26.2699 46.2891C26.1605 46.0431 26.0433 45.8596 25.8731 45.6482C25.57 45.2669 25.552 44.9295 25.5596 44.4599C25.6355 43.8292 26.2226 43.3845 26.6605 42.9687C26.5159 42.6342 26.3272 42.4149 26.0711 42.1573C25.99 42.0752 25.9088 41.9931 25.8252 41.9085C25.7374 41.8208 25.6496 41.7331 25.5592 41.6428C25.4241 41.507 25.4241 41.507 25.2862 41.3686C25.0959 41.1775 24.9051 40.9867 24.7141 40.7963C24.4692 40.5519 24.2254 40.3064 23.9819 40.0606C23.7494 39.8264 23.5159 39.5933 23.2826 39.36C23.195 39.2715 23.1074 39.1831 23.0171 39.0919C22.9357 39.011 22.8542 38.9302 22.7703 38.8469C22.6628 38.7393 22.6628 38.7393 22.5532 38.6296C22.2819 38.4106 22.1447 38.4159 21.876 38.636Z" fill="white"/>
<path d="M41.6012 4.49219C41.6917 4.53134 41.7823 4.57049 41.8755 4.61082C43.2915 5.30377 44.3223 6.51391 44.8636 7.98607C44.9453 8.29204 44.9366 8.49321 44.8239 8.78906C44.6138 9.08467 44.5056 9.16738 44.1464 9.22851C43.7606 9.16553 43.6256 9.07663 43.359 8.78906C43.2529 8.57924 43.1639 8.36565 43.0745 8.14819C42.5887 7.05789 41.8126 6.40482 40.7223 5.95703C39.6052 5.58246 38.3647 5.63099 37.3044 6.15234C36.1524 6.81718 35.5183 7.71597 35.1559 8.98437C34.9127 10.0514 35.082 11.1084 35.6381 12.0544C35.736 12.2041 35.8355 12.3528 35.9372 12.5C36.0218 12.6299 36.0218 12.6299 36.1081 12.7624C36.929 13.6062 37.9233 14.0593 39.0959 14.1085C40.3916 14.1256 41.4005 13.7187 42.3577 12.83C42.7334 12.423 42.976 11.9535 43.2229 11.4605C43.359 11.2305 43.359 11.2305 43.652 11.0352C44.0121 10.9882 44.1951 11.0128 44.5187 11.1816C44.7495 11.4531 44.8044 11.6238 44.7781 11.9801C44.5105 13.151 43.498 14.1997 42.5168 14.8437C40.9797 15.7424 39.2852 16.0228 37.5424 15.5701C35.9893 15.0456 34.8296 14.0621 34.039 12.6377C33.3078 11.1557 33.2043 9.5775 33.6911 8.00781C34.3326 6.34789 35.3965 5.1799 37.0278 4.45175C38.4625 3.91348 40.1878 3.87197 41.6012 4.49219Z" fill="white"/>
<path d="M41.7496 7.83728C42.0898 7.91014 42.0898 7.91014 42.334 8.06273C42.5469 8.40879 42.554 8.58309 42.4805 8.98436C42.0098 9.66242 41.3386 10.2389 40.7547 10.8205C40.5928 10.9819 40.4314 11.1438 40.27 11.3058C40.167 11.4088 40.064 11.5117 39.9609 11.6146C39.9127 11.6629 39.8646 11.7112 39.8151 11.761C39.5151 12.0589 39.3673 12.1939 38.9411 12.245C38.4831 12.1976 38.2837 12.0143 37.9768 11.697C37.9238 11.6444 37.8709 11.5919 37.8163 11.5377C37.705 11.4265 37.5946 11.3144 37.4849 11.2015C37.3175 11.0297 37.147 10.8616 36.9759 10.6935C36.8678 10.5847 36.76 10.4757 36.6524 10.3664C36.5762 10.2916 36.5762 10.2916 36.4986 10.2153C36.1538 9.85449 36.0469 9.57931 36.0352 9.08202C36.1755 8.79515 36.1755 8.79515 36.4258 8.59373C36.8311 8.51268 37.0499 8.49363 37.4004 8.71695C37.6078 8.89455 37.7979 9.0816 37.9883 9.27733C38.069 9.35689 38.1497 9.43645 38.2328 9.51842C38.4461 9.72934 38.6573 9.94197 38.8672 10.1562C39.234 10.0056 39.4491 9.78165 39.7171 9.49324C39.8048 9.40134 39.8926 9.30945 39.983 9.21477C40.1213 9.06924 40.2589 8.92323 40.3949 8.7756C41.2537 7.84737 41.2537 7.84737 41.7496 7.83728Z" fill="white"/>
</g>
<defs>
<clipPath id="clip0_756_2753">
<rect width="50" height="50" fill="white"/>
</clipPath>
</defs>
</svg>
